G04 #@! TF.FileFunction,Copper,L2,Bot,Signal*
%FSLAX46Y46*%
G04 Gerber Fmt 4.6, Leading zero omitted, Abs format (unit mm)*
G04 Created by KiCad (PCBNEW 4.0.2-stable) date Tue 02 Aug 2016 06:34:44 PM EDT*
%MOMM*%
G01*
G04 APERTURE LIST*
%ADD10C,0.100000*%
%ADD11C,4.500000*%
%ADD12R,2.032000X2.032000*%
%ADD13C,2.032000*%
%ADD14R,1.400000X1.400000*%
%ADD15C,1.400000*%
%ADD16R,1.300000X1.300000*%
%ADD17C,1.300000*%
%ADD18O,2.300000X1.600000*%
%ADD19C,1.998980*%
%ADD20C,1.397000*%
%ADD21R,1.397000X1.397000*%
%ADD22O,1.600000X2.300000*%
%ADD23C,1.501140*%
%ADD24O,1.501140X2.499360*%
%ADD25R,1.727200X1.727200*%
%ADD26O,1.727200X1.727200*%
%ADD27C,2.400000*%
%ADD28R,2.400000X2.400000*%
%ADD29O,1.998980X1.998980*%
%ADD30R,1.998980X1.998980*%
%ADD31C,0.600000*%
%ADD32C,0.250000*%
G04 APERTURE END LIST*
D10*
D11*
X164338000Y-127571500D03*
X163068000Y-92011500D03*
X156718000Y-140271500D03*
D12*
X114935000Y-134620000D03*
D13*
X117475000Y-134620000D03*
X120015000Y-134620000D03*
X122555000Y-134620000D03*
X132715000Y-127000000D03*
X130175000Y-127000000D03*
X127635000Y-127000000D03*
X125095000Y-127000000D03*
X125095000Y-134620000D03*
X127635000Y-134620000D03*
X130175000Y-134620000D03*
X132715000Y-134620000D03*
X135255000Y-127000000D03*
X137795000Y-127000000D03*
X137795000Y-134620000D03*
X135255000Y-134620000D03*
X122555000Y-127000000D03*
X120015000Y-127000000D03*
X117475000Y-127000000D03*
X114935000Y-127000000D03*
D12*
X114935000Y-116840000D03*
D13*
X117475000Y-116840000D03*
X120015000Y-116840000D03*
X122555000Y-116840000D03*
X132715000Y-109220000D03*
X130175000Y-109220000D03*
X127635000Y-109220000D03*
X125095000Y-109220000D03*
X125095000Y-116840000D03*
X127635000Y-116840000D03*
X130175000Y-116840000D03*
X132715000Y-116840000D03*
X135255000Y-109220000D03*
X137795000Y-109220000D03*
X137795000Y-116840000D03*
X135255000Y-116840000D03*
X122555000Y-109220000D03*
X120015000Y-109220000D03*
X117475000Y-109220000D03*
X114935000Y-109220000D03*
D12*
X114935000Y-99060000D03*
D13*
X117475000Y-99060000D03*
X120015000Y-99060000D03*
X122555000Y-99060000D03*
X132715000Y-91440000D03*
X130175000Y-91440000D03*
X127635000Y-91440000D03*
X125095000Y-91440000D03*
X125095000Y-99060000D03*
X127635000Y-99060000D03*
X130175000Y-99060000D03*
X132715000Y-99060000D03*
X135255000Y-91440000D03*
X137795000Y-91440000D03*
X137795000Y-99060000D03*
X135255000Y-99060000D03*
X122555000Y-91440000D03*
X120015000Y-91440000D03*
X117475000Y-91440000D03*
X114935000Y-91440000D03*
D12*
X114935000Y-81280000D03*
D13*
X117475000Y-81280000D03*
X120015000Y-81280000D03*
X122555000Y-81280000D03*
X132715000Y-73660000D03*
X130175000Y-73660000D03*
X127635000Y-73660000D03*
X125095000Y-73660000D03*
X125095000Y-81280000D03*
X127635000Y-81280000D03*
X130175000Y-81280000D03*
X132715000Y-81280000D03*
X135255000Y-73660000D03*
X137795000Y-73660000D03*
X137795000Y-81280000D03*
X135255000Y-81280000D03*
X122555000Y-73660000D03*
X120015000Y-73660000D03*
X117475000Y-73660000D03*
X114935000Y-73660000D03*
D14*
X103505000Y-87630000D03*
D15*
X108505000Y-87630000D03*
D14*
X147955000Y-77470000D03*
D15*
X147955000Y-72470000D03*
D16*
X104775000Y-115570000D03*
D17*
X104775000Y-117570000D03*
D16*
X107315000Y-105410000D03*
D17*
X107315000Y-107410000D03*
D18*
X145415000Y-102870000D03*
X145415000Y-105410000D03*
X145415000Y-107950000D03*
X145415000Y-110490000D03*
X145415000Y-113030000D03*
X145415000Y-115570000D03*
X145415000Y-118110000D03*
X145415000Y-120650000D03*
X145415000Y-123190000D03*
X145415000Y-125730000D03*
X145415000Y-128270000D03*
X145415000Y-130810000D03*
X145415000Y-133350000D03*
X145415000Y-135890000D03*
X153035000Y-135890000D03*
X153035000Y-133350000D03*
X153035000Y-130810000D03*
X153035000Y-128270000D03*
X153035000Y-125730000D03*
X153035000Y-123190000D03*
X153035000Y-120650000D03*
X153035000Y-118110000D03*
X153035000Y-115570000D03*
X153035000Y-113030000D03*
X153035000Y-110490000D03*
X153035000Y-107950000D03*
X153035000Y-105410000D03*
X153035000Y-102870000D03*
D19*
X109855000Y-135890000D03*
X109855000Y-125730000D03*
D20*
X140335000Y-124460000D03*
D21*
X114935000Y-124460000D03*
D20*
X117475000Y-124460000D03*
X120015000Y-124460000D03*
X122555000Y-124460000D03*
X125095000Y-124460000D03*
X127635000Y-124460000D03*
X130175000Y-124460000D03*
X132715000Y-124460000D03*
X135255000Y-124460000D03*
X137795000Y-124460000D03*
X140335000Y-106680000D03*
D21*
X114935000Y-106680000D03*
D20*
X117475000Y-106680000D03*
X120015000Y-106680000D03*
X122555000Y-106680000D03*
X125095000Y-106680000D03*
X127635000Y-106680000D03*
X130175000Y-106680000D03*
X132715000Y-106680000D03*
X135255000Y-106680000D03*
X137795000Y-106680000D03*
X140335000Y-88900000D03*
D21*
X114935000Y-88900000D03*
D20*
X117475000Y-88900000D03*
X120015000Y-88900000D03*
X122555000Y-88900000D03*
X125095000Y-88900000D03*
X127635000Y-88900000D03*
X130175000Y-88900000D03*
X132715000Y-88900000D03*
X135255000Y-88900000D03*
X137795000Y-88900000D03*
X140335000Y-71120000D03*
D21*
X114935000Y-71120000D03*
D20*
X117475000Y-71120000D03*
X120015000Y-71120000D03*
X122555000Y-71120000D03*
X125095000Y-71120000D03*
X127635000Y-71120000D03*
X130175000Y-71120000D03*
X132715000Y-71120000D03*
X135255000Y-71120000D03*
X137795000Y-71120000D03*
D22*
X117475000Y-129540000D03*
X120015000Y-129540000D03*
X122555000Y-129540000D03*
X125095000Y-129540000D03*
X127635000Y-129540000D03*
X130175000Y-129540000D03*
X132715000Y-129540000D03*
X135255000Y-129540000D03*
X135255000Y-137160000D03*
X132715000Y-137160000D03*
X130175000Y-137160000D03*
X127635000Y-137160000D03*
X125095000Y-137160000D03*
X122555000Y-137160000D03*
X120015000Y-137160000D03*
X117475000Y-137160000D03*
X112395000Y-111760000D03*
X114935000Y-111760000D03*
X117475000Y-111760000D03*
X120015000Y-111760000D03*
X122555000Y-111760000D03*
X125095000Y-111760000D03*
X127635000Y-111760000D03*
X130175000Y-111760000D03*
X130175000Y-119380000D03*
X127635000Y-119380000D03*
X125095000Y-119380000D03*
X122555000Y-119380000D03*
X120015000Y-119380000D03*
X117475000Y-119380000D03*
X114935000Y-119380000D03*
X112395000Y-119380000D03*
X100965000Y-93980000D03*
X103505000Y-93980000D03*
X106045000Y-93980000D03*
X108585000Y-93980000D03*
X111125000Y-93980000D03*
X113665000Y-93980000D03*
X116205000Y-93980000D03*
X118745000Y-93980000D03*
X118745000Y-101600000D03*
X116205000Y-101600000D03*
X113665000Y-101600000D03*
X111125000Y-101600000D03*
X108585000Y-101600000D03*
X106045000Y-101600000D03*
X103505000Y-101600000D03*
X100965000Y-101600000D03*
X123825000Y-93980000D03*
X126365000Y-93980000D03*
X128905000Y-93980000D03*
X131445000Y-93980000D03*
X133985000Y-93980000D03*
X136525000Y-93980000D03*
X139065000Y-93980000D03*
X141605000Y-93980000D03*
X141605000Y-101600000D03*
X139065000Y-101600000D03*
X136525000Y-101600000D03*
X133985000Y-101600000D03*
X131445000Y-101600000D03*
X128905000Y-101600000D03*
X126365000Y-101600000D03*
X123825000Y-101600000D03*
X122555000Y-76200000D03*
X125095000Y-76200000D03*
X127635000Y-76200000D03*
X130175000Y-76200000D03*
X132715000Y-76200000D03*
X135255000Y-76200000D03*
X137795000Y-76200000D03*
X140335000Y-76200000D03*
X140335000Y-83820000D03*
X137795000Y-83820000D03*
X135255000Y-83820000D03*
X132715000Y-83820000D03*
X130175000Y-83820000D03*
X127635000Y-83820000D03*
X125095000Y-83820000D03*
X122555000Y-83820000D03*
D23*
X145415000Y-88800940D03*
X145415000Y-83919060D03*
D11*
X100838000Y-71691500D03*
X152908000Y-86931500D03*
X95758000Y-116141500D03*
D24*
X100711000Y-140779500D03*
X98171000Y-140779500D03*
X103251000Y-140779500D03*
D25*
X165608000Y-117411500D03*
D26*
X163068000Y-117411500D03*
X165608000Y-114871500D03*
X163068000Y-114871500D03*
X165608000Y-112331500D03*
X163068000Y-112331500D03*
X165608000Y-109791500D03*
X163068000Y-109791500D03*
X165608000Y-107251500D03*
X163068000Y-107251500D03*
X165608000Y-104711500D03*
X163068000Y-104711500D03*
X165608000Y-102171500D03*
X163068000Y-102171500D03*
D27*
X100838000Y-80271500D03*
D28*
X100838000Y-76771500D03*
D29*
X160528000Y-79311500D03*
D30*
X160528000Y-81851500D03*
D29*
X160528000Y-72961500D03*
D30*
X160528000Y-75501500D03*
D31*
X115633500Y-138049000D03*
X113284000Y-121221500D03*
X113284000Y-122999500D03*
X113284000Y-129349500D03*
X138620500Y-138176000D03*
X142811500Y-139192000D03*
X144653000Y-139192000D03*
X121856500Y-121158000D03*
X99822000Y-97345500D03*
X98869500Y-110299500D03*
X105981500Y-113792000D03*
X107315000Y-114681000D03*
X109410500Y-109156500D03*
X103886000Y-106108500D03*
X98742500Y-104330500D03*
X114554000Y-103441500D03*
X112458500Y-103441500D03*
X135255000Y-113538000D03*
X114427000Y-113665000D03*
X111442500Y-108077000D03*
X110490000Y-104648000D03*
X105473500Y-96520000D03*
X104076500Y-96012000D03*
X120650000Y-95567500D03*
X119380000Y-95631000D03*
X116332000Y-90043000D03*
X114998500Y-84645500D03*
X118745000Y-89979500D03*
X118110000Y-84582000D03*
X120777000Y-83058000D03*
X120777000Y-84963000D03*
X141859000Y-88011000D03*
X107251500Y-92646500D03*
X108585000Y-104457500D03*
X100139500Y-96393000D03*
X98234500Y-96901000D03*
X122364500Y-103759000D03*
X138620500Y-110871000D03*
X131445000Y-104521000D03*
X147256500Y-125793500D03*
X140398500Y-121920000D03*
X136715500Y-121348500D03*
X134556500Y-121221500D03*
X141287500Y-99822000D03*
X139509500Y-100012500D03*
X108902500Y-73342500D03*
X150495000Y-127190500D03*
X149669500Y-139128500D03*
X148590000Y-123634500D03*
X106172000Y-84137500D03*
X101346000Y-104902000D03*
X105410000Y-105346500D03*
X116903500Y-104521000D03*
X112331500Y-104648000D03*
X105981500Y-86233000D03*
X146177000Y-93091000D03*
X148526500Y-100965000D03*
X148971000Y-101917500D03*
X153797000Y-100647500D03*
X154813000Y-102743000D03*
X161480500Y-102552500D03*
X163195000Y-122110500D03*
X160591500Y-126111000D03*
X158813500Y-127444500D03*
X157035500Y-126492000D03*
X154686000Y-126492000D03*
X138938000Y-120904000D03*
X140716000Y-120713500D03*
X147637500Y-121983500D03*
X148272500Y-124714000D03*
X150876000Y-124269500D03*
X153924000Y-116840000D03*
X160210500Y-117030500D03*
X165798500Y-119316500D03*
X160718500Y-120396000D03*
X160591500Y-121856500D03*
X158432500Y-126365000D03*
X169862500Y-112331500D03*
X160401000Y-129222500D03*
X154876500Y-129032000D03*
X135699500Y-85979000D03*
X142938500Y-89217500D03*
X127698500Y-140970000D03*
X145478500Y-140589000D03*
X145478500Y-139128500D03*
X153352500Y-141668500D03*
X151955500Y-139065000D03*
X142240000Y-86741000D03*
X145923000Y-86677500D03*
X148590000Y-96520000D03*
X151892000Y-96456500D03*
X132334000Y-103822500D03*
X99695000Y-103441500D03*
X138303000Y-103378000D03*
X139763500Y-103441500D03*
X155829000Y-132143500D03*
X162242500Y-123380500D03*
X160591500Y-124904500D03*
X157353000Y-120904000D03*
X154686000Y-118808500D03*
X157988000Y-104775000D03*
X157797500Y-106299000D03*
X107569000Y-122618500D03*
X109601000Y-139255500D03*
X109791500Y-140843000D03*
X147129500Y-140525500D03*
X146494500Y-139192000D03*
X146367500Y-137477500D03*
X125539500Y-122364500D03*
X109410500Y-119824500D03*
X111696500Y-117602000D03*
X111633000Y-113538000D03*
X109537500Y-110871000D03*
D32*
X120015000Y-137160000D02*
X120015000Y-137922000D01*
X120015000Y-137922000D02*
X119126000Y-138811000D01*
X119126000Y-138811000D02*
X116395500Y-138811000D01*
X116395500Y-138811000D02*
X115633500Y-138049000D01*
X117475000Y-129540000D02*
X117475000Y-134620000D01*
X120015000Y-129540000D02*
X120015000Y-134620000D01*
X122555000Y-129540000D02*
X122555000Y-134620000D01*
X132715000Y-124460000D02*
X132715000Y-127000000D01*
X130175000Y-124460000D02*
X130175000Y-127000000D01*
X127635000Y-124460000D02*
X127635000Y-127000000D01*
X125095000Y-124460000D02*
X125095000Y-127000000D01*
X125095000Y-129540000D02*
X125095000Y-134620000D01*
X127635000Y-129540000D02*
X127635000Y-134620000D01*
X130175000Y-129540000D02*
X130175000Y-134620000D01*
X132715000Y-129540000D02*
X132715000Y-134620000D01*
X135255000Y-127000000D02*
X135255000Y-124460000D01*
X137795000Y-124460000D02*
X137795000Y-127000000D01*
X112395000Y-111760000D02*
X112395000Y-112903000D01*
X112395000Y-112903000D02*
X113220500Y-113728500D01*
X113220500Y-113728500D02*
X113220500Y-116903500D01*
X113220500Y-116903500D02*
X113411000Y-117094000D01*
X113411000Y-117094000D02*
X113411000Y-118427500D01*
X113411000Y-118427500D02*
X113665000Y-118681500D01*
X113665000Y-118681500D02*
X113665000Y-120523000D01*
X113665000Y-120523000D02*
X113284000Y-120904000D01*
X113284000Y-120904000D02*
X113284000Y-121221500D01*
X113284000Y-122999500D02*
X113284000Y-129349500D01*
X135255000Y-134620000D02*
X135255000Y-134683500D01*
X135255000Y-134683500D02*
X138620500Y-138049000D01*
X138620500Y-138049000D02*
X138620500Y-138176000D01*
X142811500Y-139192000D02*
X144653000Y-139192000D01*
X121856500Y-121158000D02*
X121793000Y-121221500D01*
X121793000Y-121221500D02*
X116776500Y-121221500D01*
X116776500Y-121221500D02*
X114935000Y-119380000D01*
X122555000Y-124460000D02*
X122555000Y-127000000D01*
X120015000Y-124460000D02*
X120015000Y-127000000D01*
X117475000Y-124460000D02*
X117475000Y-127000000D01*
X114935000Y-124460000D02*
X114935000Y-127000000D01*
X114935000Y-116840000D02*
X114935000Y-115824000D01*
X114935000Y-115824000D02*
X116078000Y-114681000D01*
X116078000Y-114681000D02*
X116078000Y-112903000D01*
X116078000Y-112903000D02*
X114935000Y-111760000D01*
X117475000Y-111760000D02*
X117475000Y-116840000D01*
X120015000Y-111760000D02*
X120015000Y-116840000D01*
X122555000Y-111760000D02*
X122555000Y-116840000D01*
X132715000Y-106680000D02*
X132715000Y-109220000D01*
X130175000Y-106680000D02*
X130175000Y-109220000D01*
X127635000Y-106680000D02*
X127635000Y-109220000D01*
X125095000Y-106680000D02*
X125095000Y-109220000D01*
X125095000Y-111760000D02*
X125095000Y-116840000D01*
X127635000Y-111760000D02*
X127635000Y-116840000D01*
X99822000Y-97345500D02*
X96583500Y-100584000D01*
X96583500Y-100584000D02*
X96583500Y-108013500D01*
X96583500Y-108013500D02*
X98869500Y-110299500D01*
X105981500Y-113792000D02*
X106870500Y-114681000D01*
X106870500Y-114681000D02*
X107315000Y-114681000D01*
X100965000Y-93980000D02*
X100965000Y-97091500D01*
X106934000Y-109156500D02*
X109410500Y-109156500D01*
X103886000Y-106108500D02*
X106934000Y-109156500D01*
X98742500Y-103441500D02*
X98742500Y-104330500D01*
X99695000Y-102489000D02*
X98742500Y-103441500D01*
X99695000Y-98361500D02*
X99695000Y-102489000D01*
X100965000Y-97091500D02*
X99695000Y-98361500D01*
X135255000Y-106680000D02*
X135255000Y-109220000D01*
X137795000Y-106680000D02*
X137795000Y-109220000D01*
X106045000Y-93980000D02*
X112395000Y-100330000D01*
X139319000Y-115316000D02*
X137795000Y-116840000D01*
X139319000Y-108585000D02*
X139319000Y-115316000D01*
X139001500Y-108267500D02*
X139319000Y-108585000D01*
X139001500Y-106172000D02*
X139001500Y-108267500D01*
X137985500Y-105156000D02*
X139001500Y-106172000D01*
X116268500Y-105156000D02*
X137985500Y-105156000D01*
X114554000Y-103441500D02*
X116268500Y-105156000D01*
X112395000Y-103378000D02*
X112458500Y-103441500D01*
X112395000Y-100330000D02*
X112395000Y-103378000D01*
X103505000Y-93980000D02*
X103505000Y-95440500D01*
X135255000Y-113538000D02*
X135255000Y-116840000D01*
X113601500Y-112839500D02*
X114427000Y-113665000D01*
X113601500Y-110236000D02*
X113601500Y-112839500D01*
X111442500Y-108077000D02*
X113601500Y-110236000D01*
X110490000Y-103251000D02*
X110490000Y-104648000D01*
X109855000Y-102616000D02*
X110490000Y-103251000D01*
X109855000Y-100711000D02*
X109855000Y-102616000D01*
X108966000Y-99822000D02*
X109855000Y-100711000D01*
X108775500Y-99822000D02*
X108966000Y-99822000D01*
X105473500Y-96520000D02*
X108775500Y-99822000D01*
X103505000Y-95440500D02*
X104076500Y-96012000D01*
X122555000Y-106680000D02*
X122555000Y-109220000D01*
X120015000Y-106680000D02*
X120015000Y-109220000D01*
X117475000Y-106680000D02*
X117475000Y-109220000D01*
X114935000Y-106680000D02*
X114935000Y-109220000D01*
X114935000Y-99060000D02*
X113665000Y-99060000D01*
X113665000Y-99060000D02*
X108585000Y-93980000D01*
X111125000Y-93980000D02*
X111125000Y-94361000D01*
X111125000Y-94361000D02*
X113855500Y-97091500D01*
X113855500Y-97091500D02*
X115506500Y-97091500D01*
X115506500Y-97091500D02*
X117475000Y-99060000D01*
X113665000Y-93980000D02*
X113792000Y-93980000D01*
X113792000Y-93980000D02*
X117348000Y-97536000D01*
X117348000Y-97536000D02*
X118491000Y-97536000D01*
X118491000Y-97536000D02*
X120015000Y-99060000D01*
X116205000Y-93980000D02*
X116205000Y-94488000D01*
X116205000Y-94488000D02*
X118554500Y-96837500D01*
X118554500Y-96837500D02*
X120332500Y-96837500D01*
X120332500Y-96837500D02*
X122555000Y-99060000D01*
X132715000Y-88900000D02*
X132715000Y-91440000D01*
X130175000Y-88900000D02*
X130175000Y-91440000D01*
X127635000Y-88900000D02*
X127635000Y-91440000D01*
X125095000Y-88900000D02*
X125095000Y-91440000D01*
X125095000Y-99060000D02*
X125095000Y-100330000D01*
X125095000Y-100330000D02*
X126365000Y-101600000D01*
X123825000Y-93980000D02*
X123825000Y-95250000D01*
X123825000Y-95250000D02*
X127635000Y-99060000D01*
X126365000Y-93980000D02*
X126365000Y-95250000D01*
X126365000Y-95250000D02*
X130175000Y-99060000D01*
X128905000Y-93980000D02*
X128905000Y-95250000D01*
X128905000Y-95250000D02*
X132715000Y-99060000D01*
X135255000Y-88900000D02*
X135255000Y-91440000D01*
X137795000Y-88900000D02*
X137795000Y-91440000D01*
X133985000Y-93980000D02*
X133985000Y-95250000D01*
X133985000Y-95250000D02*
X137795000Y-99060000D01*
X131445000Y-93980000D02*
X131445000Y-95250000D01*
X131445000Y-95250000D02*
X135255000Y-99060000D01*
X122555000Y-88900000D02*
X122555000Y-91440000D01*
X120015000Y-88900000D02*
X120015000Y-91440000D01*
X117475000Y-88900000D02*
X117475000Y-91440000D01*
X114935000Y-88900000D02*
X114935000Y-91440000D01*
X119443500Y-95567500D02*
X120650000Y-95567500D01*
X119380000Y-95631000D02*
X119443500Y-95567500D01*
X116332000Y-85979000D02*
X116332000Y-90043000D01*
X114998500Y-84645500D02*
X116332000Y-85979000D01*
X118745000Y-85217000D02*
X118745000Y-89979500D01*
X118110000Y-84582000D02*
X118745000Y-85217000D01*
X120015000Y-81280000D02*
X120015000Y-82296000D01*
X120015000Y-82296000D02*
X120777000Y-83058000D01*
X120777000Y-84963000D02*
X121158000Y-85344000D01*
X121158000Y-85344000D02*
X123571000Y-85344000D01*
X123571000Y-85344000D02*
X125095000Y-83820000D01*
X122555000Y-76200000D02*
X122555000Y-81280000D01*
X132715000Y-71120000D02*
X132715000Y-73660000D01*
X130175000Y-71120000D02*
X130175000Y-73660000D01*
X127635000Y-71120000D02*
X127635000Y-73660000D01*
X125095000Y-71120000D02*
X125095000Y-73660000D01*
X125095000Y-76200000D02*
X125095000Y-81280000D01*
X127635000Y-76200000D02*
X127635000Y-81280000D01*
X130175000Y-76200000D02*
X130175000Y-81280000D01*
X132715000Y-76200000D02*
X132715000Y-81280000D01*
X135255000Y-71120000D02*
X135255000Y-73660000D01*
X137795000Y-71120000D02*
X137795000Y-73660000D01*
X137795000Y-76200000D02*
X137795000Y-81280000D01*
X135255000Y-76200000D02*
X135255000Y-81280000D01*
X122555000Y-71120000D02*
X122555000Y-73660000D01*
X120015000Y-71120000D02*
X120015000Y-73660000D01*
X117475000Y-71120000D02*
X117475000Y-73660000D01*
X114935000Y-71120000D02*
X114935000Y-73660000D01*
X144307560Y-87693500D02*
X145415000Y-88800940D01*
X142176500Y-87693500D02*
X144307560Y-87693500D01*
X141859000Y-88011000D02*
X142176500Y-87693500D01*
X145415000Y-88800940D02*
X145415000Y-99314000D01*
X148971000Y-122174000D02*
X145415000Y-125730000D01*
X148971000Y-102870000D02*
X148971000Y-122174000D01*
X145415000Y-99314000D02*
X148971000Y-102870000D01*
X100838000Y-80271500D02*
X103576000Y-80271500D01*
X103576000Y-80271500D02*
X105156000Y-81851500D01*
X108505000Y-87630000D02*
X108505000Y-91393000D01*
X108505000Y-91393000D02*
X107251500Y-92646500D01*
X108585000Y-104457500D02*
X108585000Y-101600000D01*
X98742500Y-96393000D02*
X100139500Y-96393000D01*
X98234500Y-96901000D02*
X98742500Y-96393000D01*
X131445000Y-101600000D02*
X131318000Y-101600000D01*
X131318000Y-101600000D02*
X129159000Y-103759000D01*
X129159000Y-103759000D02*
X122364500Y-103759000D01*
X137731500Y-111760000D02*
X130175000Y-111760000D01*
X138620500Y-110871000D02*
X137731500Y-111760000D01*
X131445000Y-101600000D02*
X131445000Y-104521000D01*
X154622500Y-119697500D02*
X153035000Y-118110000D01*
X154622500Y-124015500D02*
X154622500Y-119697500D01*
X154114500Y-124523500D02*
X154622500Y-124015500D01*
X151701500Y-124523500D02*
X154114500Y-124523500D01*
X150495000Y-125730000D02*
X151701500Y-124523500D01*
X147320000Y-125730000D02*
X150495000Y-125730000D01*
X147256500Y-125793500D02*
X147320000Y-125730000D01*
X127635000Y-119380000D02*
X127635000Y-120517498D01*
X127635000Y-120517498D02*
X128339002Y-121221500D01*
X137287000Y-121920000D02*
X140398500Y-121920000D01*
X136715500Y-121348500D02*
X137287000Y-121920000D01*
X128339002Y-121221500D02*
X134556500Y-121221500D01*
X139065000Y-101600000D02*
X139065000Y-100457000D01*
X139065000Y-100457000D02*
X139509500Y-100012500D01*
X141605000Y-99504500D02*
X141605000Y-93980000D01*
X141287500Y-99822000D02*
X141605000Y-99504500D01*
X140335000Y-106680000D02*
X140335000Y-105854500D01*
X139065000Y-104584500D02*
X139065000Y-101600000D01*
X140335000Y-105854500D02*
X139065000Y-104584500D01*
X140335000Y-88900000D02*
X140335000Y-90106500D01*
X141605000Y-91376500D02*
X141605000Y-93980000D01*
X140335000Y-90106500D02*
X141605000Y-91376500D01*
X105156000Y-84281000D02*
X108505000Y-87630000D01*
X105156000Y-77089000D02*
X105156000Y-81851500D01*
X105156000Y-81851500D02*
X105156000Y-84281000D01*
X108902500Y-73342500D02*
X105156000Y-77089000D01*
X147955000Y-72470000D02*
X141685000Y-72470000D01*
X141685000Y-72470000D02*
X140335000Y-71120000D01*
X135255000Y-129540000D02*
X138303000Y-129540000D01*
X140335000Y-127508000D02*
X140335000Y-124460000D01*
X138303000Y-129540000D02*
X140335000Y-127508000D01*
X132715000Y-137160000D02*
X132715000Y-138106998D01*
X132715000Y-138106998D02*
X133540500Y-138932498D01*
X133540500Y-138932498D02*
X139323104Y-138932498D01*
X139323104Y-138932498D02*
X139573000Y-138682602D01*
X139573000Y-138682602D02*
X139573000Y-133858000D01*
X139573000Y-133858000D02*
X135255000Y-129540000D01*
X137795000Y-83820000D02*
X137795000Y-86360000D01*
X137795000Y-86360000D02*
X140335000Y-88900000D01*
X140335000Y-76200000D02*
X140335000Y-81280000D01*
X140335000Y-81280000D02*
X137795000Y-83820000D01*
X140335000Y-71120000D02*
X140335000Y-76200000D01*
X145415000Y-83919060D02*
X145415000Y-80010000D01*
X145415000Y-80010000D02*
X147955000Y-77470000D01*
X100838000Y-76771500D02*
X100838000Y-77597000D01*
X100838000Y-77597000D02*
X98933000Y-79502000D01*
X98933000Y-79502000D02*
X98933000Y-87566500D01*
X98933000Y-87566500D02*
X96075500Y-90424000D01*
X96075500Y-90424000D02*
X96075500Y-110871000D01*
X96075500Y-110871000D02*
X98806000Y-113601500D01*
X98806000Y-113601500D02*
X98806000Y-120777000D01*
X98806000Y-120777000D02*
X97218500Y-122364500D01*
X97218500Y-122364500D02*
X97218500Y-134747000D01*
X97218500Y-134747000D02*
X103251000Y-140779500D01*
X150495000Y-138303000D02*
X150495000Y-127190500D01*
X149669500Y-139128500D02*
X150495000Y-138303000D01*
X149034500Y-123190000D02*
X153035000Y-123190000D01*
X148590000Y-123634500D02*
X149034500Y-123190000D01*
X106489500Y-83820000D02*
X122555000Y-83820000D01*
X106172000Y-84137500D02*
X106489500Y-83820000D01*
X100965000Y-101600000D02*
X100965000Y-104521000D01*
X100965000Y-104521000D02*
X101346000Y-104902000D01*
X105473500Y-105410000D02*
X107315000Y-105410000D01*
X105410000Y-105346500D02*
X105473500Y-105410000D01*
X123825000Y-101600000D02*
X123501998Y-101600000D01*
X123501998Y-101600000D02*
X120580998Y-104521000D01*
X120580998Y-104521000D02*
X116903500Y-104521000D01*
X112331500Y-104648000D02*
X111569500Y-105410000D01*
X111569500Y-105410000D02*
X107315000Y-105410000D01*
X109855000Y-125730000D02*
X109855000Y-131826000D01*
X113474500Y-137160000D02*
X117475000Y-137160000D01*
X113220500Y-137414000D02*
X113474500Y-137160000D01*
X113220500Y-135191500D02*
X113220500Y-137414000D01*
X109855000Y-131826000D02*
X113220500Y-135191500D01*
X109855000Y-135890000D02*
X109855000Y-134112000D01*
X104711500Y-87503000D02*
X105981500Y-86233000D01*
X104711500Y-96964500D02*
X104711500Y-87503000D01*
X102171500Y-99504500D02*
X104711500Y-96964500D01*
X102171500Y-108648500D02*
X102171500Y-99504500D01*
X108204000Y-114681000D02*
X102171500Y-108648500D01*
X108204000Y-132461000D02*
X108204000Y-114681000D01*
X109855000Y-134112000D02*
X108204000Y-132461000D01*
X146177000Y-93091000D02*
X149288500Y-89979500D01*
X149288500Y-89979500D02*
X154051000Y-89979500D01*
X154051000Y-89979500D02*
X156019500Y-88011000D01*
X156019500Y-88011000D02*
X156019500Y-86360000D01*
X156019500Y-86360000D02*
X160528000Y-81851500D01*
X160528000Y-79311500D02*
X160655000Y-79311500D01*
X160655000Y-79311500D02*
X161544000Y-80200500D01*
X161544000Y-80200500D02*
X161925000Y-80200500D01*
X161925000Y-80200500D02*
X162242500Y-80518000D01*
X162242500Y-80518000D02*
X162242500Y-87249000D01*
X162242500Y-87249000D02*
X148526500Y-100965000D01*
X148971000Y-101917500D02*
X150241000Y-100647500D01*
X150241000Y-100647500D02*
X153797000Y-100647500D01*
X154813000Y-102743000D02*
X155003500Y-102552500D01*
X155003500Y-102552500D02*
X161480500Y-102552500D01*
X163068000Y-121983500D02*
X163068000Y-117411500D01*
X163195000Y-122110500D02*
X163068000Y-121983500D01*
X160147000Y-126111000D02*
X160591500Y-126111000D01*
X158813500Y-127444500D02*
X160147000Y-126111000D01*
X154686000Y-126492000D02*
X157035500Y-126492000D01*
X140525500Y-120904000D02*
X138938000Y-120904000D01*
X140716000Y-120713500D02*
X140525500Y-120904000D01*
X145415000Y-115570000D02*
X145415000Y-115633500D01*
X145415000Y-115633500D02*
X147637500Y-117856000D01*
X147637500Y-117856000D02*
X147637500Y-121983500D01*
X148272500Y-124714000D02*
X148717000Y-124269500D01*
X148717000Y-124269500D02*
X150876000Y-124269500D01*
X153924000Y-116840000D02*
X154114500Y-117030500D01*
X154114500Y-117030500D02*
X160210500Y-117030500D01*
X145415000Y-128270000D02*
X147637500Y-128270000D01*
X164338000Y-113601500D02*
X163068000Y-114871500D01*
X169037000Y-113601500D02*
X164338000Y-113601500D01*
X169227500Y-113792000D02*
X169037000Y-113601500D01*
X169227500Y-119189500D02*
X169227500Y-113792000D01*
X169037000Y-119380000D02*
X169227500Y-119189500D01*
X165862000Y-119380000D02*
X169037000Y-119380000D01*
X165798500Y-119316500D02*
X165862000Y-119380000D01*
X160718500Y-121729500D02*
X160718500Y-120396000D01*
X160591500Y-121856500D02*
X160718500Y-121729500D01*
X157670500Y-127127000D02*
X158432500Y-126365000D01*
X152273000Y-127127000D02*
X157670500Y-127127000D01*
X151701500Y-126555500D02*
X152273000Y-127127000D01*
X149352000Y-126555500D02*
X151701500Y-126555500D01*
X147637500Y-128270000D02*
X149352000Y-126555500D01*
X169862500Y-112331500D02*
X165608000Y-112331500D01*
X155067000Y-129222500D02*
X160401000Y-129222500D01*
X154876500Y-129032000D02*
X155067000Y-129222500D01*
X145415000Y-133350000D02*
X142875000Y-130810000D01*
X129095500Y-85979000D02*
X127635000Y-84518500D01*
X135699500Y-85979000D02*
X129095500Y-85979000D01*
X142938500Y-123063000D02*
X142938500Y-89217500D01*
X142875000Y-123126500D02*
X142938500Y-123063000D01*
X142875000Y-130810000D02*
X142875000Y-123126500D01*
X127635000Y-84518500D02*
X127635000Y-83820000D01*
X145415000Y-135890000D02*
X145415000Y-139065000D01*
X145097500Y-140970000D02*
X127698500Y-140970000D01*
X145478500Y-140589000D02*
X145097500Y-140970000D01*
X145415000Y-139065000D02*
X145478500Y-139128500D01*
X153035000Y-135890000D02*
X153035000Y-137033000D01*
X161544000Y-113855500D02*
X163068000Y-112331500D01*
X161544000Y-139319000D02*
X161544000Y-113855500D01*
X157797500Y-143065500D02*
X161544000Y-139319000D01*
X155575000Y-143065500D02*
X157797500Y-143065500D01*
X155003500Y-142494000D02*
X155575000Y-143065500D01*
X154178000Y-142494000D02*
X155003500Y-142494000D01*
X153352500Y-141668500D02*
X154178000Y-142494000D01*
X151955500Y-138112500D02*
X151955500Y-139065000D01*
X153035000Y-137033000D02*
X151955500Y-138112500D01*
X142240000Y-86741000D02*
X142303500Y-86677500D01*
X142303500Y-86677500D02*
X145923000Y-86677500D01*
X148590000Y-96520000D02*
X148653500Y-96456500D01*
X148653500Y-96456500D02*
X151892000Y-96456500D01*
X99568000Y-120142000D02*
X101854000Y-120142000D01*
X102108000Y-127381000D02*
X99568000Y-127381000D01*
X103822500Y-125666500D02*
X102108000Y-127381000D01*
X103822500Y-122110500D02*
X103822500Y-125666500D01*
X101854000Y-120142000D02*
X103822500Y-122110500D01*
X99568000Y-103568500D02*
X99568000Y-120142000D01*
X99568000Y-127381000D02*
X99568000Y-130873500D01*
X132334000Y-103822500D02*
X133985000Y-102171500D01*
X133985000Y-102171500D02*
X133985000Y-101600000D01*
X122555000Y-137160000D02*
X122555000Y-137414000D01*
X122555000Y-137414000D02*
X124973502Y-139832502D01*
X155067000Y-132842000D02*
X153035000Y-130810000D01*
X155067000Y-137414000D02*
X155067000Y-132842000D01*
X152648498Y-139832502D02*
X155067000Y-137414000D01*
X124973502Y-139832502D02*
X152648498Y-139832502D01*
X99695000Y-103441500D02*
X99568000Y-103568500D01*
X99568000Y-130873500D02*
X108775500Y-140081000D01*
X108775500Y-140081000D02*
X119634000Y-140081000D01*
X119634000Y-140081000D02*
X122555000Y-137160000D01*
X140335000Y-103441500D02*
X139763500Y-103441500D01*
X138303000Y-103378000D02*
X136525000Y-101600000D01*
X154876500Y-130111500D02*
X153035000Y-128270000D01*
X154876500Y-131191000D02*
X154876500Y-130111500D01*
X155829000Y-132143500D02*
X154876500Y-131191000D01*
X125095000Y-119380000D02*
X125095000Y-119824500D01*
X125095000Y-119824500D02*
X127952500Y-122682000D01*
X132397500Y-139382500D02*
X130175000Y-137160000D01*
X139509500Y-139382500D02*
X132397500Y-139382500D01*
X142367000Y-136525000D02*
X139509500Y-139382500D01*
X142367000Y-123380500D02*
X142367000Y-136525000D01*
X141668500Y-122682000D02*
X142367000Y-123380500D01*
X127952500Y-122682000D02*
X141668500Y-122682000D01*
X125095000Y-119380000D02*
X125095000Y-120523000D01*
X125095000Y-120523000D02*
X123761500Y-121856500D01*
X113665000Y-104584500D02*
X113665000Y-101600000D01*
X110236000Y-108013500D02*
X113665000Y-104584500D01*
X110236000Y-120269000D02*
X110236000Y-108013500D01*
X111823500Y-121856500D02*
X110236000Y-120269000D01*
X123761500Y-121856500D02*
X111823500Y-121856500D01*
X135255000Y-83820000D02*
X135255000Y-84582000D01*
X135255000Y-84582000D02*
X139065000Y-88392000D01*
X139065000Y-88392000D02*
X139065000Y-90487500D01*
X139065000Y-90487500D02*
X140335000Y-91757500D01*
X140335000Y-91757500D02*
X140335000Y-103441500D01*
X140335000Y-103441500D02*
X140335000Y-104330500D01*
X140335000Y-104330500D02*
X141605000Y-105600500D01*
X141605000Y-105600500D02*
X141605000Y-115506500D01*
X141605000Y-115506500D02*
X135255000Y-121856500D01*
X135255000Y-121856500D02*
X127571500Y-121856500D01*
X127571500Y-121856500D02*
X125095000Y-119380000D01*
X153035000Y-125730000D02*
X159766000Y-125730000D01*
X169735500Y-109791500D02*
X165608000Y-109791500D01*
X170624500Y-110680500D02*
X169735500Y-109791500D01*
X170624500Y-120205500D02*
X170624500Y-110680500D01*
X167576500Y-123253500D02*
X170624500Y-120205500D01*
X162369500Y-123253500D02*
X167576500Y-123253500D01*
X162242500Y-123380500D02*
X162369500Y-123253500D01*
X159766000Y-125730000D02*
X160591500Y-124904500D01*
X157353000Y-120904000D02*
X155257500Y-118808500D01*
X155257500Y-118808500D02*
X154686000Y-118808500D01*
X163068000Y-109791500D02*
X163068000Y-110236000D01*
X163068000Y-110236000D02*
X157734000Y-115570000D01*
X157734000Y-115570000D02*
X153035000Y-115570000D01*
X165608000Y-107251500D02*
X165100000Y-107251500D01*
X165100000Y-107251500D02*
X163766500Y-108585000D01*
X163766500Y-108585000D02*
X160337500Y-108585000D01*
X160337500Y-108585000D02*
X155892500Y-113030000D01*
X155892500Y-113030000D02*
X153035000Y-113030000D01*
X163068000Y-107251500D02*
X159258000Y-107251500D01*
X156019500Y-110490000D02*
X153035000Y-110490000D01*
X159258000Y-107251500D02*
X156019500Y-110490000D01*
X165608000Y-104711500D02*
X165036500Y-104711500D01*
X165036500Y-104711500D02*
X163766500Y-103441500D01*
X163766500Y-103441500D02*
X159321500Y-103441500D01*
X159321500Y-103441500D02*
X157988000Y-104775000D01*
X157797500Y-106299000D02*
X156146500Y-107950000D01*
X156146500Y-107950000D02*
X153035000Y-107950000D01*
X153035000Y-105410000D02*
X162369500Y-105410000D01*
X162369500Y-105410000D02*
X163068000Y-104711500D01*
X165608000Y-102171500D02*
X165608000Y-101663500D01*
X165608000Y-101663500D02*
X164719000Y-100774500D01*
X164719000Y-100774500D02*
X155130500Y-100774500D01*
X155130500Y-100774500D02*
X153035000Y-102870000D01*
X107569000Y-122618500D02*
X107753998Y-122803498D01*
X107753998Y-122803498D02*
X107753998Y-137339496D01*
X107753998Y-137339496D02*
X109601000Y-139186498D01*
X109601000Y-139186498D02*
X109601000Y-139255500D01*
X109791500Y-140843000D02*
X109855000Y-140906500D01*
X109855000Y-140906500D02*
X126312504Y-140906500D01*
X126312504Y-140906500D02*
X127709504Y-142303500D01*
X127709504Y-142303500D02*
X145161000Y-142303500D01*
X145161000Y-142303500D02*
X146939000Y-140525500D01*
X146939000Y-140525500D02*
X147129500Y-140525500D01*
X146494500Y-139192000D02*
X146367500Y-139065000D01*
X146367500Y-139065000D02*
X146367500Y-137477500D01*
X106045000Y-101600000D02*
X106045000Y-103314500D01*
X111188500Y-122364500D02*
X125539500Y-122364500D01*
X109601000Y-120777000D02*
X111188500Y-122364500D01*
X109601000Y-120015000D02*
X109601000Y-120777000D01*
X109410500Y-119824500D02*
X109601000Y-120015000D01*
X111696500Y-113601500D02*
X111696500Y-117602000D01*
X111633000Y-113538000D02*
X111696500Y-113601500D01*
X108839000Y-110172500D02*
X109537500Y-110871000D01*
X106680000Y-110172500D02*
X108839000Y-110172500D01*
X103124000Y-106616500D02*
X106680000Y-110172500D01*
X103124000Y-105981500D02*
X103124000Y-106616500D01*
X103949500Y-105156000D02*
X103124000Y-105981500D01*
X104203500Y-105156000D02*
X103949500Y-105156000D01*
X106045000Y-103314500D02*
X104203500Y-105156000D01*
M02*
