G04 #@! TF.FileFunction,Legend,Top*
%FSLAX46Y46*%
G04 Gerber Fmt 4.6, Leading zero omitted, Abs format (unit mm)*
G04 Created by KiCad (PCBNEW 4.0.2-stable) date Tue 02 Aug 2016 06:34:44 PM EDT*
%MOMM*%
G01*
G04 APERTURE LIST*
%ADD10C,0.100000*%
%ADD11C,0.150000*%
G04 APERTURE END LIST*
D10*
D11*
X137033000Y-128270000D02*
X138557000Y-128270000D01*
X138557000Y-128270000D02*
X138557000Y-132842000D01*
X138557000Y-132842000D02*
X137033000Y-132842000D01*
X137033000Y-132842000D02*
X137033000Y-128270000D01*
X134493000Y-128270000D02*
X136017000Y-128270000D01*
X136017000Y-128270000D02*
X136017000Y-132842000D01*
X136017000Y-132842000D02*
X134493000Y-132842000D01*
X134493000Y-132842000D02*
X134493000Y-128270000D01*
X131953000Y-128270000D02*
X133477000Y-128270000D01*
X133477000Y-128270000D02*
X133477000Y-132842000D01*
X133477000Y-132842000D02*
X131953000Y-132842000D01*
X131953000Y-132842000D02*
X131953000Y-128270000D01*
X129413000Y-128270000D02*
X130937000Y-128270000D01*
X130937000Y-128270000D02*
X130937000Y-132842000D01*
X130937000Y-132842000D02*
X129413000Y-132842000D01*
X129413000Y-132842000D02*
X129413000Y-128270000D01*
X126873000Y-128270000D02*
X128397000Y-128270000D01*
X128397000Y-128270000D02*
X128397000Y-132842000D01*
X128397000Y-132842000D02*
X126873000Y-132842000D01*
X126873000Y-132842000D02*
X126873000Y-128270000D01*
X124333000Y-128270000D02*
X125857000Y-128270000D01*
X125857000Y-128270000D02*
X125857000Y-132842000D01*
X125857000Y-132842000D02*
X124333000Y-132842000D01*
X124333000Y-132842000D02*
X124333000Y-128270000D01*
X121793000Y-132842000D02*
X123317000Y-132842000D01*
X123317000Y-132842000D02*
X123317000Y-128270000D01*
X123317000Y-128270000D02*
X121793000Y-128270000D01*
X121793000Y-128270000D02*
X121793000Y-132842000D01*
X119253000Y-128270000D02*
X120777000Y-128270000D01*
X120777000Y-128270000D02*
X120777000Y-132842000D01*
X120777000Y-132842000D02*
X119253000Y-132842000D01*
X119253000Y-132842000D02*
X119253000Y-128270000D01*
X116713000Y-132842000D02*
X116713000Y-128270000D01*
X116713000Y-128270000D02*
X118237000Y-128270000D01*
X118237000Y-128270000D02*
X118237000Y-132842000D01*
X118237000Y-132842000D02*
X116713000Y-132842000D01*
X114173000Y-132842000D02*
X114173000Y-128270000D01*
X114173000Y-128270000D02*
X115697000Y-128270000D01*
X115697000Y-128270000D02*
X115697000Y-132842000D01*
X115697000Y-132842000D02*
X114173000Y-132842000D01*
X137541000Y-132842000D02*
X138049000Y-132842000D01*
X138049000Y-128270000D02*
X137541000Y-128270000D01*
X135001000Y-132842000D02*
X135509000Y-132842000D01*
X135509000Y-128270000D02*
X135001000Y-128270000D01*
X132461000Y-132842000D02*
X132969000Y-132842000D01*
X132969000Y-128270000D02*
X132461000Y-128270000D01*
X129921000Y-132842000D02*
X130429000Y-132842000D01*
X130429000Y-128270000D02*
X129921000Y-128270000D01*
X127381000Y-132842000D02*
X127889000Y-132842000D01*
X127889000Y-128270000D02*
X127381000Y-128270000D01*
X124841000Y-132842000D02*
X125349000Y-132842000D01*
X125349000Y-128270000D02*
X124841000Y-128270000D01*
X122809000Y-128270000D02*
X122301000Y-128270000D01*
X122301000Y-132842000D02*
X122809000Y-132842000D01*
X119761000Y-132842000D02*
X120269000Y-132842000D01*
X120269000Y-128270000D02*
X119761000Y-128270000D01*
X117221000Y-132842000D02*
X117729000Y-132842000D01*
X117729000Y-128270000D02*
X117221000Y-128270000D01*
X114681000Y-128270000D02*
X115189000Y-128270000D01*
X115189000Y-132842000D02*
X114681000Y-132842000D01*
X139065000Y-125730000D02*
X139065000Y-135890000D01*
X139065000Y-135890000D02*
X113665000Y-135890000D01*
X113665000Y-135890000D02*
X113665000Y-125730000D01*
X113665000Y-125730000D02*
X139065000Y-125730000D01*
X137033000Y-110490000D02*
X138557000Y-110490000D01*
X138557000Y-110490000D02*
X138557000Y-115062000D01*
X138557000Y-115062000D02*
X137033000Y-115062000D01*
X137033000Y-115062000D02*
X137033000Y-110490000D01*
X134493000Y-110490000D02*
X136017000Y-110490000D01*
X136017000Y-110490000D02*
X136017000Y-115062000D01*
X136017000Y-115062000D02*
X134493000Y-115062000D01*
X134493000Y-115062000D02*
X134493000Y-110490000D01*
X131953000Y-110490000D02*
X133477000Y-110490000D01*
X133477000Y-110490000D02*
X133477000Y-115062000D01*
X133477000Y-115062000D02*
X131953000Y-115062000D01*
X131953000Y-115062000D02*
X131953000Y-110490000D01*
X129413000Y-110490000D02*
X130937000Y-110490000D01*
X130937000Y-110490000D02*
X130937000Y-115062000D01*
X130937000Y-115062000D02*
X129413000Y-115062000D01*
X129413000Y-115062000D02*
X129413000Y-110490000D01*
X126873000Y-110490000D02*
X128397000Y-110490000D01*
X128397000Y-110490000D02*
X128397000Y-115062000D01*
X128397000Y-115062000D02*
X126873000Y-115062000D01*
X126873000Y-115062000D02*
X126873000Y-110490000D01*
X124333000Y-110490000D02*
X125857000Y-110490000D01*
X125857000Y-110490000D02*
X125857000Y-115062000D01*
X125857000Y-115062000D02*
X124333000Y-115062000D01*
X124333000Y-115062000D02*
X124333000Y-110490000D01*
X121793000Y-115062000D02*
X123317000Y-115062000D01*
X123317000Y-115062000D02*
X123317000Y-110490000D01*
X123317000Y-110490000D02*
X121793000Y-110490000D01*
X121793000Y-110490000D02*
X121793000Y-115062000D01*
X119253000Y-110490000D02*
X120777000Y-110490000D01*
X120777000Y-110490000D02*
X120777000Y-115062000D01*
X120777000Y-115062000D02*
X119253000Y-115062000D01*
X119253000Y-115062000D02*
X119253000Y-110490000D01*
X116713000Y-115062000D02*
X116713000Y-110490000D01*
X116713000Y-110490000D02*
X118237000Y-110490000D01*
X118237000Y-110490000D02*
X118237000Y-115062000D01*
X118237000Y-115062000D02*
X116713000Y-115062000D01*
X114173000Y-115062000D02*
X114173000Y-110490000D01*
X114173000Y-110490000D02*
X115697000Y-110490000D01*
X115697000Y-110490000D02*
X115697000Y-115062000D01*
X115697000Y-115062000D02*
X114173000Y-115062000D01*
X137541000Y-115062000D02*
X138049000Y-115062000D01*
X138049000Y-110490000D02*
X137541000Y-110490000D01*
X135001000Y-115062000D02*
X135509000Y-115062000D01*
X135509000Y-110490000D02*
X135001000Y-110490000D01*
X132461000Y-115062000D02*
X132969000Y-115062000D01*
X132969000Y-110490000D02*
X132461000Y-110490000D01*
X129921000Y-115062000D02*
X130429000Y-115062000D01*
X130429000Y-110490000D02*
X129921000Y-110490000D01*
X127381000Y-115062000D02*
X127889000Y-115062000D01*
X127889000Y-110490000D02*
X127381000Y-110490000D01*
X124841000Y-115062000D02*
X125349000Y-115062000D01*
X125349000Y-110490000D02*
X124841000Y-110490000D01*
X122809000Y-110490000D02*
X122301000Y-110490000D01*
X122301000Y-115062000D02*
X122809000Y-115062000D01*
X119761000Y-115062000D02*
X120269000Y-115062000D01*
X120269000Y-110490000D02*
X119761000Y-110490000D01*
X117221000Y-115062000D02*
X117729000Y-115062000D01*
X117729000Y-110490000D02*
X117221000Y-110490000D01*
X114681000Y-110490000D02*
X115189000Y-110490000D01*
X115189000Y-115062000D02*
X114681000Y-115062000D01*
X139065000Y-107950000D02*
X139065000Y-118110000D01*
X139065000Y-118110000D02*
X113665000Y-118110000D01*
X113665000Y-118110000D02*
X113665000Y-107950000D01*
X113665000Y-107950000D02*
X139065000Y-107950000D01*
X137033000Y-92710000D02*
X138557000Y-92710000D01*
X138557000Y-92710000D02*
X138557000Y-97282000D01*
X138557000Y-97282000D02*
X137033000Y-97282000D01*
X137033000Y-97282000D02*
X137033000Y-92710000D01*
X134493000Y-92710000D02*
X136017000Y-92710000D01*
X136017000Y-92710000D02*
X136017000Y-97282000D01*
X136017000Y-97282000D02*
X134493000Y-97282000D01*
X134493000Y-97282000D02*
X134493000Y-92710000D01*
X131953000Y-92710000D02*
X133477000Y-92710000D01*
X133477000Y-92710000D02*
X133477000Y-97282000D01*
X133477000Y-97282000D02*
X131953000Y-97282000D01*
X131953000Y-97282000D02*
X131953000Y-92710000D01*
X129413000Y-92710000D02*
X130937000Y-92710000D01*
X130937000Y-92710000D02*
X130937000Y-97282000D01*
X130937000Y-97282000D02*
X129413000Y-97282000D01*
X129413000Y-97282000D02*
X129413000Y-92710000D01*
X126873000Y-92710000D02*
X128397000Y-92710000D01*
X128397000Y-92710000D02*
X128397000Y-97282000D01*
X128397000Y-97282000D02*
X126873000Y-97282000D01*
X126873000Y-97282000D02*
X126873000Y-92710000D01*
X124333000Y-92710000D02*
X125857000Y-92710000D01*
X125857000Y-92710000D02*
X125857000Y-97282000D01*
X125857000Y-97282000D02*
X124333000Y-97282000D01*
X124333000Y-97282000D02*
X124333000Y-92710000D01*
X121793000Y-97282000D02*
X123317000Y-97282000D01*
X123317000Y-97282000D02*
X123317000Y-92710000D01*
X123317000Y-92710000D02*
X121793000Y-92710000D01*
X121793000Y-92710000D02*
X121793000Y-97282000D01*
X119253000Y-92710000D02*
X120777000Y-92710000D01*
X120777000Y-92710000D02*
X120777000Y-97282000D01*
X120777000Y-97282000D02*
X119253000Y-97282000D01*
X119253000Y-97282000D02*
X119253000Y-92710000D01*
X116713000Y-97282000D02*
X116713000Y-92710000D01*
X116713000Y-92710000D02*
X118237000Y-92710000D01*
X118237000Y-92710000D02*
X118237000Y-97282000D01*
X118237000Y-97282000D02*
X116713000Y-97282000D01*
X114173000Y-97282000D02*
X114173000Y-92710000D01*
X114173000Y-92710000D02*
X115697000Y-92710000D01*
X115697000Y-92710000D02*
X115697000Y-97282000D01*
X115697000Y-97282000D02*
X114173000Y-97282000D01*
X137541000Y-97282000D02*
X138049000Y-97282000D01*
X138049000Y-92710000D02*
X137541000Y-92710000D01*
X135001000Y-97282000D02*
X135509000Y-97282000D01*
X135509000Y-92710000D02*
X135001000Y-92710000D01*
X132461000Y-97282000D02*
X132969000Y-97282000D01*
X132969000Y-92710000D02*
X132461000Y-92710000D01*
X129921000Y-97282000D02*
X130429000Y-97282000D01*
X130429000Y-92710000D02*
X129921000Y-92710000D01*
X127381000Y-97282000D02*
X127889000Y-97282000D01*
X127889000Y-92710000D02*
X127381000Y-92710000D01*
X124841000Y-97282000D02*
X125349000Y-97282000D01*
X125349000Y-92710000D02*
X124841000Y-92710000D01*
X122809000Y-92710000D02*
X122301000Y-92710000D01*
X122301000Y-97282000D02*
X122809000Y-97282000D01*
X119761000Y-97282000D02*
X120269000Y-97282000D01*
X120269000Y-92710000D02*
X119761000Y-92710000D01*
X117221000Y-97282000D02*
X117729000Y-97282000D01*
X117729000Y-92710000D02*
X117221000Y-92710000D01*
X114681000Y-92710000D02*
X115189000Y-92710000D01*
X115189000Y-97282000D02*
X114681000Y-97282000D01*
X139065000Y-90170000D02*
X139065000Y-100330000D01*
X139065000Y-100330000D02*
X113665000Y-100330000D01*
X113665000Y-100330000D02*
X113665000Y-90170000D01*
X113665000Y-90170000D02*
X139065000Y-90170000D01*
X137033000Y-74930000D02*
X138557000Y-74930000D01*
X138557000Y-74930000D02*
X138557000Y-79502000D01*
X138557000Y-79502000D02*
X137033000Y-79502000D01*
X137033000Y-79502000D02*
X137033000Y-74930000D01*
X134493000Y-74930000D02*
X136017000Y-74930000D01*
X136017000Y-74930000D02*
X136017000Y-79502000D01*
X136017000Y-79502000D02*
X134493000Y-79502000D01*
X134493000Y-79502000D02*
X134493000Y-74930000D01*
X131953000Y-74930000D02*
X133477000Y-74930000D01*
X133477000Y-74930000D02*
X133477000Y-79502000D01*
X133477000Y-79502000D02*
X131953000Y-79502000D01*
X131953000Y-79502000D02*
X131953000Y-74930000D01*
X129413000Y-74930000D02*
X130937000Y-74930000D01*
X130937000Y-74930000D02*
X130937000Y-79502000D01*
X130937000Y-79502000D02*
X129413000Y-79502000D01*
X129413000Y-79502000D02*
X129413000Y-74930000D01*
X126873000Y-74930000D02*
X128397000Y-74930000D01*
X128397000Y-74930000D02*
X128397000Y-79502000D01*
X128397000Y-79502000D02*
X126873000Y-79502000D01*
X126873000Y-79502000D02*
X126873000Y-74930000D01*
X124333000Y-74930000D02*
X125857000Y-74930000D01*
X125857000Y-74930000D02*
X125857000Y-79502000D01*
X125857000Y-79502000D02*
X124333000Y-79502000D01*
X124333000Y-79502000D02*
X124333000Y-74930000D01*
X121793000Y-79502000D02*
X123317000Y-79502000D01*
X123317000Y-79502000D02*
X123317000Y-74930000D01*
X123317000Y-74930000D02*
X121793000Y-74930000D01*
X121793000Y-74930000D02*
X121793000Y-79502000D01*
X119253000Y-74930000D02*
X120777000Y-74930000D01*
X120777000Y-74930000D02*
X120777000Y-79502000D01*
X120777000Y-79502000D02*
X119253000Y-79502000D01*
X119253000Y-79502000D02*
X119253000Y-74930000D01*
X116713000Y-79502000D02*
X116713000Y-74930000D01*
X116713000Y-74930000D02*
X118237000Y-74930000D01*
X118237000Y-74930000D02*
X118237000Y-79502000D01*
X118237000Y-79502000D02*
X116713000Y-79502000D01*
X114173000Y-79502000D02*
X114173000Y-74930000D01*
X114173000Y-74930000D02*
X115697000Y-74930000D01*
X115697000Y-74930000D02*
X115697000Y-79502000D01*
X115697000Y-79502000D02*
X114173000Y-79502000D01*
X137541000Y-79502000D02*
X138049000Y-79502000D01*
X138049000Y-74930000D02*
X137541000Y-74930000D01*
X135001000Y-79502000D02*
X135509000Y-79502000D01*
X135509000Y-74930000D02*
X135001000Y-74930000D01*
X132461000Y-79502000D02*
X132969000Y-79502000D01*
X132969000Y-74930000D02*
X132461000Y-74930000D01*
X129921000Y-79502000D02*
X130429000Y-79502000D01*
X130429000Y-74930000D02*
X129921000Y-74930000D01*
X127381000Y-79502000D02*
X127889000Y-79502000D01*
X127889000Y-74930000D02*
X127381000Y-74930000D01*
X124841000Y-79502000D02*
X125349000Y-79502000D01*
X125349000Y-74930000D02*
X124841000Y-74930000D01*
X122809000Y-74930000D02*
X122301000Y-74930000D01*
X122301000Y-79502000D02*
X122809000Y-79502000D01*
X119761000Y-79502000D02*
X120269000Y-79502000D01*
X120269000Y-74930000D02*
X119761000Y-74930000D01*
X117221000Y-79502000D02*
X117729000Y-79502000D01*
X117729000Y-74930000D02*
X117221000Y-74930000D01*
X114681000Y-74930000D02*
X115189000Y-74930000D01*
X115189000Y-79502000D02*
X114681000Y-79502000D01*
X139065000Y-72390000D02*
X139065000Y-82550000D01*
X139065000Y-82550000D02*
X113665000Y-82550000D01*
X113665000Y-82550000D02*
X113665000Y-72390000D01*
X113665000Y-72390000D02*
X139065000Y-72390000D01*
X103005000Y-85380000D02*
X109005000Y-85380000D01*
X109005000Y-89880000D02*
X103005000Y-89880000D01*
X145705000Y-77970000D02*
X145705000Y-71970000D01*
X150205000Y-71970000D02*
X150205000Y-77970000D01*
X107274000Y-116645000D02*
X102276000Y-116645000D01*
X107266000Y-116785000D02*
X104929000Y-116785000D01*
X104621000Y-116785000D02*
X102284000Y-116785000D01*
X107250000Y-116925000D02*
X105248000Y-116925000D01*
X104302000Y-116925000D02*
X102300000Y-116925000D01*
X107226000Y-117065000D02*
X105395000Y-117065000D01*
X104155000Y-117065000D02*
X102324000Y-117065000D01*
X107193000Y-117205000D02*
X105487000Y-117205000D01*
X104063000Y-117205000D02*
X102357000Y-117205000D01*
X107152000Y-117345000D02*
X105543000Y-117345000D01*
X104007000Y-117345000D02*
X102398000Y-117345000D01*
X107102000Y-117485000D02*
X105570000Y-117485000D01*
X103980000Y-117485000D02*
X102448000Y-117485000D01*
X107041000Y-117625000D02*
X105573000Y-117625000D01*
X103977000Y-117625000D02*
X102509000Y-117625000D01*
X106971000Y-117765000D02*
X105551000Y-117765000D01*
X103999000Y-117765000D02*
X102579000Y-117765000D01*
X106889000Y-117905000D02*
X105501000Y-117905000D01*
X104049000Y-117905000D02*
X102661000Y-117905000D01*
X106794000Y-118045000D02*
X105419000Y-118045000D01*
X104131000Y-118045000D02*
X102756000Y-118045000D01*
X106683000Y-118185000D02*
X105287000Y-118185000D01*
X104263000Y-118185000D02*
X102867000Y-118185000D01*
X106555000Y-118325000D02*
X105040000Y-118325000D01*
X104510000Y-118325000D02*
X102995000Y-118325000D01*
X106406000Y-118465000D02*
X103144000Y-118465000D01*
X106227000Y-118605000D02*
X103323000Y-118605000D01*
X106008000Y-118745000D02*
X103542000Y-118745000D01*
X105719000Y-118885000D02*
X103831000Y-118885000D01*
X105247000Y-119025000D02*
X104303000Y-119025000D01*
X105575000Y-117570000D02*
G75*
G03X105575000Y-117570000I-800000J0D01*
G01*
X107312500Y-116570000D02*
G75*
G03X107312500Y-116570000I-2537500J0D01*
G01*
X109814000Y-106485000D02*
X104816000Y-106485000D01*
X109806000Y-106625000D02*
X107469000Y-106625000D01*
X107161000Y-106625000D02*
X104824000Y-106625000D01*
X109790000Y-106765000D02*
X107788000Y-106765000D01*
X106842000Y-106765000D02*
X104840000Y-106765000D01*
X109766000Y-106905000D02*
X107935000Y-106905000D01*
X106695000Y-106905000D02*
X104864000Y-106905000D01*
X109733000Y-107045000D02*
X108027000Y-107045000D01*
X106603000Y-107045000D02*
X104897000Y-107045000D01*
X109692000Y-107185000D02*
X108083000Y-107185000D01*
X106547000Y-107185000D02*
X104938000Y-107185000D01*
X109642000Y-107325000D02*
X108110000Y-107325000D01*
X106520000Y-107325000D02*
X104988000Y-107325000D01*
X109581000Y-107465000D02*
X108113000Y-107465000D01*
X106517000Y-107465000D02*
X105049000Y-107465000D01*
X109511000Y-107605000D02*
X108091000Y-107605000D01*
X106539000Y-107605000D02*
X105119000Y-107605000D01*
X109429000Y-107745000D02*
X108041000Y-107745000D01*
X106589000Y-107745000D02*
X105201000Y-107745000D01*
X109334000Y-107885000D02*
X107959000Y-107885000D01*
X106671000Y-107885000D02*
X105296000Y-107885000D01*
X109223000Y-108025000D02*
X107827000Y-108025000D01*
X106803000Y-108025000D02*
X105407000Y-108025000D01*
X109095000Y-108165000D02*
X107580000Y-108165000D01*
X107050000Y-108165000D02*
X105535000Y-108165000D01*
X108946000Y-108305000D02*
X105684000Y-108305000D01*
X108767000Y-108445000D02*
X105863000Y-108445000D01*
X108548000Y-108585000D02*
X106082000Y-108585000D01*
X108259000Y-108725000D02*
X106371000Y-108725000D01*
X107787000Y-108865000D02*
X106843000Y-108865000D01*
X108115000Y-107410000D02*
G75*
G03X108115000Y-107410000I-800000J0D01*
G01*
X109852500Y-106410000D02*
G75*
G03X109852500Y-106410000I-2537500J0D01*
G01*
X145550000Y-100575000D02*
X145550000Y-101845000D01*
X152900000Y-100575000D02*
X152900000Y-101845000D01*
X152900000Y-138185000D02*
X152900000Y-136915000D01*
X145550000Y-138185000D02*
X145550000Y-136915000D01*
X145550000Y-100575000D02*
X152900000Y-100575000D01*
X145550000Y-138185000D02*
X152900000Y-138185000D01*
X145550000Y-101845000D02*
X144265000Y-101845000D01*
X113665000Y-125730000D02*
X113665000Y-123190000D01*
X116205000Y-123190000D02*
X141605000Y-123190000D01*
X141605000Y-123190000D02*
X141605000Y-125730000D01*
X141605000Y-125730000D02*
X116205000Y-125730000D01*
X116205000Y-125730000D02*
X116205000Y-123190000D01*
X113665000Y-107950000D02*
X113665000Y-105410000D01*
X116205000Y-105410000D02*
X141605000Y-105410000D01*
X141605000Y-105410000D02*
X141605000Y-107950000D01*
X141605000Y-107950000D02*
X116205000Y-107950000D01*
X116205000Y-107950000D02*
X116205000Y-105410000D01*
X113665000Y-90170000D02*
X113665000Y-87630000D01*
X116205000Y-87630000D02*
X141605000Y-87630000D01*
X141605000Y-87630000D02*
X141605000Y-90170000D01*
X141605000Y-90170000D02*
X116205000Y-90170000D01*
X116205000Y-90170000D02*
X116205000Y-87630000D01*
X113665000Y-72390000D02*
X113665000Y-69850000D01*
X116205000Y-69850000D02*
X141605000Y-69850000D01*
X141605000Y-69850000D02*
X141605000Y-72390000D01*
X141605000Y-72390000D02*
X116205000Y-72390000D01*
X116205000Y-72390000D02*
X116205000Y-69850000D01*
X106764780Y-78709890D02*
X106764780Y-76209890D01*
X106764780Y-76209890D02*
X107864780Y-76209890D01*
X107864780Y-76209890D02*
X107864780Y-78709890D01*
X107864780Y-78709890D02*
X106764780Y-78709890D01*
X108114780Y-78959890D02*
X108114780Y-75959890D01*
X106514780Y-78959890D02*
X106514780Y-75959890D01*
X106514780Y-75959890D02*
X108114780Y-75959890D01*
X106514780Y-78959890D02*
X108114780Y-78959890D01*
X109064780Y-80459890D02*
X109064780Y-74459890D01*
X105564780Y-80459890D02*
X105564780Y-74459890D01*
X105564780Y-80459890D02*
X109064780Y-80459890D01*
X105564780Y-74459890D02*
X109064780Y-74459890D01*
X144414240Y-81661000D02*
X144815560Y-81460340D01*
X144815560Y-81460340D02*
X145415000Y-81358740D01*
X145415000Y-81358740D02*
X145915380Y-81460340D01*
X145915380Y-81460340D02*
X146613880Y-81859120D01*
X146613880Y-81859120D02*
X147015200Y-82461100D01*
X147015200Y-82461100D02*
X147215860Y-83060540D01*
X147215860Y-83060540D02*
X147215860Y-89659460D01*
X147215860Y-89659460D02*
X147015200Y-90360500D01*
X147015200Y-90360500D02*
X146715480Y-90759280D01*
X146715480Y-90759280D02*
X146215100Y-91160600D01*
X146215100Y-91160600D02*
X145615660Y-91361260D01*
X145615660Y-91361260D02*
X145115280Y-91361260D01*
X145115280Y-91361260D02*
X144614900Y-91160600D01*
X144614900Y-91160600D02*
X144015460Y-90660220D01*
X144015460Y-90660220D02*
X143715740Y-90159840D01*
X143715740Y-90159840D02*
X143614140Y-89659460D01*
X143614140Y-89560400D02*
X143614140Y-82958940D01*
X143614140Y-82958940D02*
X143715740Y-82560160D01*
X143715740Y-82560160D02*
X144015460Y-82059780D01*
X144015460Y-82059780D02*
X144515840Y-81559400D01*
X143085820Y-89550240D02*
X143134080Y-90009980D01*
X143134080Y-90009980D02*
X143245840Y-90408760D01*
X143245840Y-90408760D02*
X143464280Y-90840560D01*
X143464280Y-90840560D02*
X143695420Y-91130120D01*
X143695420Y-91130120D02*
X144045940Y-91460320D01*
X144045940Y-91460320D02*
X144584420Y-91749880D01*
X144584420Y-91749880D02*
X145183860Y-91879420D01*
X145183860Y-91879420D02*
X145694400Y-91879420D01*
X145694400Y-91879420D02*
X146395440Y-91709240D01*
X146395440Y-91709240D02*
X146984720Y-91310460D01*
X146984720Y-91310460D02*
X147355560Y-90850720D01*
X147355560Y-90850720D02*
X147563840Y-90429080D01*
X147563840Y-90429080D02*
X147723860Y-89979500D01*
X147723860Y-89979500D02*
X147754340Y-89540080D01*
X147535900Y-82199480D02*
X147314920Y-81821020D01*
X147314920Y-81821020D02*
X147035520Y-81500980D01*
X147035520Y-81500980D02*
X146705320Y-81249520D01*
X146705320Y-81249520D02*
X146154140Y-80949800D01*
X146154140Y-80949800D02*
X145684240Y-80840580D01*
X145684240Y-80840580D02*
X145224500Y-80820260D01*
X145224500Y-80820260D02*
X144764760Y-80909160D01*
X144764760Y-80909160D02*
X144315180Y-81099660D01*
X144315180Y-81099660D02*
X143845280Y-81460340D01*
X143845280Y-81460340D02*
X143525240Y-81810860D01*
X143525240Y-81810860D02*
X143294100Y-82199480D01*
X143294100Y-82199480D02*
X143154400Y-82628740D01*
X143154400Y-82628740D02*
X143085820Y-83070700D01*
X147744180Y-89560400D02*
X147744180Y-83108800D01*
X147744180Y-83108800D02*
X147706080Y-82689700D01*
X147706080Y-82689700D02*
X147535900Y-82199480D01*
X143085820Y-89560400D02*
X143085820Y-83108800D01*
X104876600Y-128562100D02*
X106070400Y-128562100D01*
X96520000Y-128587500D02*
X95377000Y-128587500D01*
X96520000Y-135369300D02*
X96520000Y-128612900D01*
X104876600Y-128587500D02*
X104876600Y-135369300D01*
X104876600Y-135369300D02*
X96545400Y-135369300D01*
X103225472Y-124015500D02*
G75*
G03X103225472Y-124015500I-2514472J0D01*
G01*
X98171000Y-137096500D02*
X98171000Y-138874500D01*
X100711000Y-137096500D02*
X100711000Y-138874500D01*
X103251000Y-137096500D02*
X103251000Y-138874500D01*
X106045000Y-128587500D02*
X106045000Y-120586500D01*
X106045000Y-120586500D02*
X95377000Y-120586500D01*
X95377000Y-120586500D02*
X95377000Y-128587500D01*
X106045000Y-137096500D02*
X106045000Y-128587500D01*
X95377000Y-128587500D02*
X95377000Y-137096500D01*
X100711000Y-137096500D02*
X95377000Y-137096500D01*
X100711000Y-137096500D02*
X106045000Y-137096500D01*
X159788000Y-122491500D02*
X159788000Y-97091500D01*
X160338000Y-121951500D02*
X160338000Y-97651500D01*
X168888000Y-122491500D02*
X168888000Y-97091500D01*
X168338000Y-121951500D02*
X168338000Y-112041500D01*
X168338000Y-107541500D02*
X168338000Y-97651500D01*
X168338000Y-112041500D02*
X168888000Y-112041500D01*
X168338000Y-107541500D02*
X168888000Y-107541500D01*
X159788000Y-122491500D02*
X168888000Y-122491500D01*
X160338000Y-121951500D02*
X168338000Y-121951500D01*
X159788000Y-97091500D02*
X168888000Y-97091500D01*
X160338000Y-97651500D02*
X168338000Y-97651500D01*
X159788000Y-122491500D02*
X160338000Y-121951500D01*
X159788000Y-97091500D02*
X160338000Y-97651500D01*
X168888000Y-122491500D02*
X168338000Y-121951500D01*
X168888000Y-97091500D02*
X168338000Y-97651500D01*
X96738000Y-78521500D02*
X96338000Y-78521500D01*
X97838000Y-75021500D02*
X97838000Y-82021500D01*
X96738000Y-75021500D02*
X96738000Y-82021500D01*
X103938000Y-75021500D02*
X96338000Y-75021500D01*
X96338000Y-82021500D02*
X103938000Y-82021500D01*
X103938000Y-82021500D02*
X103938000Y-75021500D01*
X163128960Y-77782420D02*
X163128960Y-83380580D01*
X163626800Y-83182460D02*
X163128960Y-83182460D01*
X163128960Y-77980540D02*
X163626800Y-77980540D01*
X163626800Y-80581500D02*
X163128960Y-80581500D01*
X157827980Y-83380580D02*
X157827980Y-77782420D01*
X163626800Y-83380580D02*
X163626800Y-77782420D01*
X163626800Y-77782420D02*
X157429200Y-77782420D01*
X157429200Y-77782420D02*
X157429200Y-83380580D01*
X157429200Y-83380580D02*
X163626800Y-83380580D01*
X163128960Y-71432420D02*
X163128960Y-77030580D01*
X163626800Y-76832460D02*
X163128960Y-76832460D01*
X163128960Y-71630540D02*
X163626800Y-71630540D01*
X163626800Y-74231500D02*
X163128960Y-74231500D01*
X157827980Y-77030580D02*
X157827980Y-71432420D01*
X163626800Y-77030580D02*
X163626800Y-71432420D01*
X163626800Y-71432420D02*
X157429200Y-71432420D01*
X157429200Y-71432420D02*
X157429200Y-77030580D01*
X157429200Y-77030580D02*
X163626800Y-77030580D01*
X161615381Y-128904833D02*
X161139190Y-129238167D01*
X161615381Y-129476262D02*
X160615381Y-129476262D01*
X160615381Y-129095309D01*
X160663000Y-129000071D01*
X160710619Y-128952452D01*
X160805857Y-128904833D01*
X160948714Y-128904833D01*
X161043952Y-128952452D01*
X161091571Y-129000071D01*
X161139190Y-129095309D01*
X161139190Y-129476262D01*
X161091571Y-128476262D02*
X161091571Y-128142928D01*
X161615381Y-128000071D02*
X161615381Y-128476262D01*
X160615381Y-128476262D01*
X160615381Y-128000071D01*
X161091571Y-127238166D02*
X161091571Y-127571500D01*
X161615381Y-127571500D02*
X160615381Y-127571500D01*
X160615381Y-127095309D01*
X160615381Y-126571500D02*
X160853476Y-126571500D01*
X160758238Y-126809595D02*
X160853476Y-126571500D01*
X160758238Y-126333404D01*
X161043952Y-126714357D02*
X160853476Y-126571500D01*
X161043952Y-126428642D01*
X160615381Y-125809595D02*
X160853476Y-125809595D01*
X160758238Y-126047690D02*
X160853476Y-125809595D01*
X160758238Y-125571499D01*
X161043952Y-125952452D02*
X160853476Y-125809595D01*
X161043952Y-125666737D01*
X168600381Y-134008167D02*
X167600381Y-134008167D01*
X168314667Y-133674833D01*
X167600381Y-133341500D01*
X168600381Y-133341500D01*
X168600381Y-132722453D02*
X168552762Y-132817691D01*
X168505143Y-132865310D01*
X168409905Y-132912929D01*
X168124190Y-132912929D01*
X168028952Y-132865310D01*
X167981333Y-132817691D01*
X167933714Y-132722453D01*
X167933714Y-132579595D01*
X167981333Y-132484357D01*
X168028952Y-132436738D01*
X168124190Y-132389119D01*
X168409905Y-132389119D01*
X168505143Y-132436738D01*
X168552762Y-132484357D01*
X168600381Y-132579595D01*
X168600381Y-132722453D01*
X167933714Y-131531976D02*
X168600381Y-131531976D01*
X167933714Y-131960548D02*
X168457524Y-131960548D01*
X168552762Y-131912929D01*
X168600381Y-131817691D01*
X168600381Y-131674833D01*
X168552762Y-131579595D01*
X168505143Y-131531976D01*
X167933714Y-131055786D02*
X168600381Y-131055786D01*
X168028952Y-131055786D02*
X167981333Y-131008167D01*
X167933714Y-130912929D01*
X167933714Y-130770071D01*
X167981333Y-130674833D01*
X168076571Y-130627214D01*
X168600381Y-130627214D01*
X167933714Y-130293881D02*
X167933714Y-129912929D01*
X167600381Y-130151024D02*
X168457524Y-130151024D01*
X168552762Y-130103405D01*
X168600381Y-130008167D01*
X168600381Y-129912929D01*
X168600381Y-129579595D02*
X167933714Y-129579595D01*
X167600381Y-129579595D02*
X167648000Y-129627214D01*
X167695619Y-129579595D01*
X167648000Y-129531976D01*
X167600381Y-129579595D01*
X167695619Y-129579595D01*
X167933714Y-129103405D02*
X168600381Y-129103405D01*
X168028952Y-129103405D02*
X167981333Y-129055786D01*
X167933714Y-128960548D01*
X167933714Y-128817690D01*
X167981333Y-128722452D01*
X168076571Y-128674833D01*
X168600381Y-128674833D01*
X167933714Y-127770071D02*
X168743238Y-127770071D01*
X168838476Y-127817690D01*
X168886095Y-127865309D01*
X168933714Y-127960548D01*
X168933714Y-128103405D01*
X168886095Y-128198643D01*
X168552762Y-127770071D02*
X168600381Y-127865309D01*
X168600381Y-128055786D01*
X168552762Y-128151024D01*
X168505143Y-128198643D01*
X168409905Y-128246262D01*
X168124190Y-128246262D01*
X168028952Y-128198643D01*
X167981333Y-128151024D01*
X167933714Y-128055786D01*
X167933714Y-127865309D01*
X167981333Y-127770071D01*
X168600381Y-126531976D02*
X167600381Y-126531976D01*
X168076571Y-126531976D02*
X168076571Y-125960547D01*
X168600381Y-125960547D02*
X167600381Y-125960547D01*
X168600381Y-125341500D02*
X168552762Y-125436738D01*
X168505143Y-125484357D01*
X168409905Y-125531976D01*
X168124190Y-125531976D01*
X168028952Y-125484357D01*
X167981333Y-125436738D01*
X167933714Y-125341500D01*
X167933714Y-125198642D01*
X167981333Y-125103404D01*
X168028952Y-125055785D01*
X168124190Y-125008166D01*
X168409905Y-125008166D01*
X168505143Y-125055785D01*
X168552762Y-125103404D01*
X168600381Y-125198642D01*
X168600381Y-125341500D01*
X168600381Y-124436738D02*
X168552762Y-124531976D01*
X168457524Y-124579595D01*
X167600381Y-124579595D01*
X168552762Y-123674832D02*
X168600381Y-123770070D01*
X168600381Y-123960547D01*
X168552762Y-124055785D01*
X168457524Y-124103404D01*
X168076571Y-124103404D01*
X167981333Y-124055785D01*
X167933714Y-123960547D01*
X167933714Y-123770070D01*
X167981333Y-123674832D01*
X168076571Y-123627213D01*
X168171810Y-123627213D01*
X168267048Y-124103404D01*
X160345381Y-93344833D02*
X159869190Y-93678167D01*
X160345381Y-93916262D02*
X159345381Y-93916262D01*
X159345381Y-93535309D01*
X159393000Y-93440071D01*
X159440619Y-93392452D01*
X159535857Y-93344833D01*
X159678714Y-93344833D01*
X159773952Y-93392452D01*
X159821571Y-93440071D01*
X159869190Y-93535309D01*
X159869190Y-93916262D01*
X159821571Y-92916262D02*
X159821571Y-92582928D01*
X160345381Y-92440071D02*
X160345381Y-92916262D01*
X159345381Y-92916262D01*
X159345381Y-92440071D01*
X159821571Y-91678166D02*
X159821571Y-92011500D01*
X160345381Y-92011500D02*
X159345381Y-92011500D01*
X159345381Y-91535309D01*
X159345381Y-91011500D02*
X159583476Y-91011500D01*
X159488238Y-91249595D02*
X159583476Y-91011500D01*
X159488238Y-90773404D01*
X159773952Y-91154357D02*
X159583476Y-91011500D01*
X159773952Y-90868642D01*
X159345381Y-90249595D02*
X159583476Y-90249595D01*
X159488238Y-90487690D02*
X159583476Y-90249595D01*
X159488238Y-90011499D01*
X159773952Y-90392452D02*
X159583476Y-90249595D01*
X159773952Y-90106737D01*
X166695381Y-95908167D02*
X165695381Y-95908167D01*
X166409667Y-95574833D01*
X165695381Y-95241500D01*
X166695381Y-95241500D01*
X166695381Y-94622453D02*
X166647762Y-94717691D01*
X166600143Y-94765310D01*
X166504905Y-94812929D01*
X166219190Y-94812929D01*
X166123952Y-94765310D01*
X166076333Y-94717691D01*
X166028714Y-94622453D01*
X166028714Y-94479595D01*
X166076333Y-94384357D01*
X166123952Y-94336738D01*
X166219190Y-94289119D01*
X166504905Y-94289119D01*
X166600143Y-94336738D01*
X166647762Y-94384357D01*
X166695381Y-94479595D01*
X166695381Y-94622453D01*
X166028714Y-93431976D02*
X166695381Y-93431976D01*
X166028714Y-93860548D02*
X166552524Y-93860548D01*
X166647762Y-93812929D01*
X166695381Y-93717691D01*
X166695381Y-93574833D01*
X166647762Y-93479595D01*
X166600143Y-93431976D01*
X166028714Y-92955786D02*
X166695381Y-92955786D01*
X166123952Y-92955786D02*
X166076333Y-92908167D01*
X166028714Y-92812929D01*
X166028714Y-92670071D01*
X166076333Y-92574833D01*
X166171571Y-92527214D01*
X166695381Y-92527214D01*
X166028714Y-92193881D02*
X166028714Y-91812929D01*
X165695381Y-92051024D02*
X166552524Y-92051024D01*
X166647762Y-92003405D01*
X166695381Y-91908167D01*
X166695381Y-91812929D01*
X166695381Y-91479595D02*
X166028714Y-91479595D01*
X165695381Y-91479595D02*
X165743000Y-91527214D01*
X165790619Y-91479595D01*
X165743000Y-91431976D01*
X165695381Y-91479595D01*
X165790619Y-91479595D01*
X166028714Y-91003405D02*
X166695381Y-91003405D01*
X166123952Y-91003405D02*
X166076333Y-90955786D01*
X166028714Y-90860548D01*
X166028714Y-90717690D01*
X166076333Y-90622452D01*
X166171571Y-90574833D01*
X166695381Y-90574833D01*
X166028714Y-89670071D02*
X166838238Y-89670071D01*
X166933476Y-89717690D01*
X166981095Y-89765309D01*
X167028714Y-89860548D01*
X167028714Y-90003405D01*
X166981095Y-90098643D01*
X166647762Y-89670071D02*
X166695381Y-89765309D01*
X166695381Y-89955786D01*
X166647762Y-90051024D01*
X166600143Y-90098643D01*
X166504905Y-90146262D01*
X166219190Y-90146262D01*
X166123952Y-90098643D01*
X166076333Y-90051024D01*
X166028714Y-89955786D01*
X166028714Y-89765309D01*
X166076333Y-89670071D01*
X166695381Y-88431976D02*
X165695381Y-88431976D01*
X166171571Y-88431976D02*
X166171571Y-87860547D01*
X166695381Y-87860547D02*
X165695381Y-87860547D01*
X166695381Y-87241500D02*
X166647762Y-87336738D01*
X166600143Y-87384357D01*
X166504905Y-87431976D01*
X166219190Y-87431976D01*
X166123952Y-87384357D01*
X166076333Y-87336738D01*
X166028714Y-87241500D01*
X166028714Y-87098642D01*
X166076333Y-87003404D01*
X166123952Y-86955785D01*
X166219190Y-86908166D01*
X166504905Y-86908166D01*
X166600143Y-86955785D01*
X166647762Y-87003404D01*
X166695381Y-87098642D01*
X166695381Y-87241500D01*
X166695381Y-86336738D02*
X166647762Y-86431976D01*
X166552524Y-86479595D01*
X165695381Y-86479595D01*
X166647762Y-85574832D02*
X166695381Y-85670070D01*
X166695381Y-85860547D01*
X166647762Y-85955785D01*
X166552524Y-86003404D01*
X166171571Y-86003404D01*
X166076333Y-85955785D01*
X166028714Y-85860547D01*
X166028714Y-85670070D01*
X166076333Y-85574832D01*
X166171571Y-85527213D01*
X166266810Y-85527213D01*
X166362048Y-86003404D01*
X150304667Y-140723881D02*
X149971333Y-140247690D01*
X149733238Y-140723881D02*
X149733238Y-139723881D01*
X150114191Y-139723881D01*
X150209429Y-139771500D01*
X150257048Y-139819119D01*
X150304667Y-139914357D01*
X150304667Y-140057214D01*
X150257048Y-140152452D01*
X150209429Y-140200071D01*
X150114191Y-140247690D01*
X149733238Y-140247690D01*
X150733238Y-140200071D02*
X151066572Y-140200071D01*
X151209429Y-140723881D02*
X150733238Y-140723881D01*
X150733238Y-139723881D01*
X151209429Y-139723881D01*
X151971334Y-140200071D02*
X151638000Y-140200071D01*
X151638000Y-140723881D02*
X151638000Y-139723881D01*
X152114191Y-139723881D01*
X152638000Y-139723881D02*
X152638000Y-139961976D01*
X152399905Y-139866738D02*
X152638000Y-139961976D01*
X152876096Y-139866738D01*
X152495143Y-140152452D02*
X152638000Y-139961976D01*
X152780858Y-140152452D01*
X153399905Y-139723881D02*
X153399905Y-139961976D01*
X153161810Y-139866738D02*
X153399905Y-139961976D01*
X153638001Y-139866738D01*
X153257048Y-140152452D02*
X153399905Y-139961976D01*
X153542763Y-140152452D01*
X158440381Y-137818167D02*
X157440381Y-137818167D01*
X158154667Y-137484833D01*
X157440381Y-137151500D01*
X158440381Y-137151500D01*
X158440381Y-136532453D02*
X158392762Y-136627691D01*
X158345143Y-136675310D01*
X158249905Y-136722929D01*
X157964190Y-136722929D01*
X157868952Y-136675310D01*
X157821333Y-136627691D01*
X157773714Y-136532453D01*
X157773714Y-136389595D01*
X157821333Y-136294357D01*
X157868952Y-136246738D01*
X157964190Y-136199119D01*
X158249905Y-136199119D01*
X158345143Y-136246738D01*
X158392762Y-136294357D01*
X158440381Y-136389595D01*
X158440381Y-136532453D01*
X157773714Y-135341976D02*
X158440381Y-135341976D01*
X157773714Y-135770548D02*
X158297524Y-135770548D01*
X158392762Y-135722929D01*
X158440381Y-135627691D01*
X158440381Y-135484833D01*
X158392762Y-135389595D01*
X158345143Y-135341976D01*
X157773714Y-134865786D02*
X158440381Y-134865786D01*
X157868952Y-134865786D02*
X157821333Y-134818167D01*
X157773714Y-134722929D01*
X157773714Y-134580071D01*
X157821333Y-134484833D01*
X157916571Y-134437214D01*
X158440381Y-134437214D01*
X157773714Y-134103881D02*
X157773714Y-133722929D01*
X157440381Y-133961024D02*
X158297524Y-133961024D01*
X158392762Y-133913405D01*
X158440381Y-133818167D01*
X158440381Y-133722929D01*
X158440381Y-133389595D02*
X157773714Y-133389595D01*
X157440381Y-133389595D02*
X157488000Y-133437214D01*
X157535619Y-133389595D01*
X157488000Y-133341976D01*
X157440381Y-133389595D01*
X157535619Y-133389595D01*
X157773714Y-132913405D02*
X158440381Y-132913405D01*
X157868952Y-132913405D02*
X157821333Y-132865786D01*
X157773714Y-132770548D01*
X157773714Y-132627690D01*
X157821333Y-132532452D01*
X157916571Y-132484833D01*
X158440381Y-132484833D01*
X157773714Y-131580071D02*
X158583238Y-131580071D01*
X158678476Y-131627690D01*
X158726095Y-131675309D01*
X158773714Y-131770548D01*
X158773714Y-131913405D01*
X158726095Y-132008643D01*
X158392762Y-131580071D02*
X158440381Y-131675309D01*
X158440381Y-131865786D01*
X158392762Y-131961024D01*
X158345143Y-132008643D01*
X158249905Y-132056262D01*
X157964190Y-132056262D01*
X157868952Y-132008643D01*
X157821333Y-131961024D01*
X157773714Y-131865786D01*
X157773714Y-131675309D01*
X157821333Y-131580071D01*
X158440381Y-130341976D02*
X157440381Y-130341976D01*
X157916571Y-130341976D02*
X157916571Y-129770547D01*
X158440381Y-129770547D02*
X157440381Y-129770547D01*
X158440381Y-129151500D02*
X158392762Y-129246738D01*
X158345143Y-129294357D01*
X158249905Y-129341976D01*
X157964190Y-129341976D01*
X157868952Y-129294357D01*
X157821333Y-129246738D01*
X157773714Y-129151500D01*
X157773714Y-129008642D01*
X157821333Y-128913404D01*
X157868952Y-128865785D01*
X157964190Y-128818166D01*
X158249905Y-128818166D01*
X158345143Y-128865785D01*
X158392762Y-128913404D01*
X158440381Y-129008642D01*
X158440381Y-129151500D01*
X158440381Y-128246738D02*
X158392762Y-128341976D01*
X158297524Y-128389595D01*
X157440381Y-128389595D01*
X158392762Y-127484832D02*
X158440381Y-127580070D01*
X158440381Y-127770547D01*
X158392762Y-127865785D01*
X158297524Y-127913404D01*
X157916571Y-127913404D01*
X157821333Y-127865785D01*
X157773714Y-127770547D01*
X157773714Y-127580070D01*
X157821333Y-127484832D01*
X157916571Y-127437213D01*
X158011810Y-127437213D01*
X158107048Y-127913404D01*
X125031667Y-123118571D02*
X125174524Y-123166190D01*
X125222143Y-123213810D01*
X125269762Y-123309048D01*
X125269762Y-123451905D01*
X125222143Y-123547143D01*
X125174524Y-123594762D01*
X125079286Y-123642381D01*
X124698333Y-123642381D01*
X124698333Y-122642381D01*
X125031667Y-122642381D01*
X125126905Y-122690000D01*
X125174524Y-122737619D01*
X125222143Y-122832857D01*
X125222143Y-122928095D01*
X125174524Y-123023333D01*
X125126905Y-123070952D01*
X125031667Y-123118571D01*
X124698333Y-123118571D01*
X125650714Y-123356667D02*
X126126905Y-123356667D01*
X125555476Y-123642381D02*
X125888809Y-122642381D01*
X126222143Y-123642381D01*
X127126905Y-123642381D02*
X126793571Y-123166190D01*
X126555476Y-123642381D02*
X126555476Y-122642381D01*
X126936429Y-122642381D01*
X127031667Y-122690000D01*
X127079286Y-122737619D01*
X127126905Y-122832857D01*
X127126905Y-122975714D01*
X127079286Y-123070952D01*
X127031667Y-123118571D01*
X126936429Y-123166190D01*
X126555476Y-123166190D01*
X128079286Y-123642381D02*
X127507857Y-123642381D01*
X127793571Y-123642381D02*
X127793571Y-122642381D01*
X127698333Y-122785238D01*
X127603095Y-122880476D01*
X127507857Y-122928095D01*
X125031667Y-105338571D02*
X125174524Y-105386190D01*
X125222143Y-105433810D01*
X125269762Y-105529048D01*
X125269762Y-105671905D01*
X125222143Y-105767143D01*
X125174524Y-105814762D01*
X125079286Y-105862381D01*
X124698333Y-105862381D01*
X124698333Y-104862381D01*
X125031667Y-104862381D01*
X125126905Y-104910000D01*
X125174524Y-104957619D01*
X125222143Y-105052857D01*
X125222143Y-105148095D01*
X125174524Y-105243333D01*
X125126905Y-105290952D01*
X125031667Y-105338571D01*
X124698333Y-105338571D01*
X125650714Y-105576667D02*
X126126905Y-105576667D01*
X125555476Y-105862381D02*
X125888809Y-104862381D01*
X126222143Y-105862381D01*
X127126905Y-105862381D02*
X126793571Y-105386190D01*
X126555476Y-105862381D02*
X126555476Y-104862381D01*
X126936429Y-104862381D01*
X127031667Y-104910000D01*
X127079286Y-104957619D01*
X127126905Y-105052857D01*
X127126905Y-105195714D01*
X127079286Y-105290952D01*
X127031667Y-105338571D01*
X126936429Y-105386190D01*
X126555476Y-105386190D01*
X127507857Y-104957619D02*
X127555476Y-104910000D01*
X127650714Y-104862381D01*
X127888810Y-104862381D01*
X127984048Y-104910000D01*
X128031667Y-104957619D01*
X128079286Y-105052857D01*
X128079286Y-105148095D01*
X128031667Y-105290952D01*
X127460238Y-105862381D01*
X128079286Y-105862381D01*
X125031667Y-87558571D02*
X125174524Y-87606190D01*
X125222143Y-87653810D01*
X125269762Y-87749048D01*
X125269762Y-87891905D01*
X125222143Y-87987143D01*
X125174524Y-88034762D01*
X125079286Y-88082381D01*
X124698333Y-88082381D01*
X124698333Y-87082381D01*
X125031667Y-87082381D01*
X125126905Y-87130000D01*
X125174524Y-87177619D01*
X125222143Y-87272857D01*
X125222143Y-87368095D01*
X125174524Y-87463333D01*
X125126905Y-87510952D01*
X125031667Y-87558571D01*
X124698333Y-87558571D01*
X125650714Y-87796667D02*
X126126905Y-87796667D01*
X125555476Y-88082381D02*
X125888809Y-87082381D01*
X126222143Y-88082381D01*
X127126905Y-88082381D02*
X126793571Y-87606190D01*
X126555476Y-88082381D02*
X126555476Y-87082381D01*
X126936429Y-87082381D01*
X127031667Y-87130000D01*
X127079286Y-87177619D01*
X127126905Y-87272857D01*
X127126905Y-87415714D01*
X127079286Y-87510952D01*
X127031667Y-87558571D01*
X126936429Y-87606190D01*
X126555476Y-87606190D01*
X127460238Y-87082381D02*
X128079286Y-87082381D01*
X127745952Y-87463333D01*
X127888810Y-87463333D01*
X127984048Y-87510952D01*
X128031667Y-87558571D01*
X128079286Y-87653810D01*
X128079286Y-87891905D01*
X128031667Y-87987143D01*
X127984048Y-88034762D01*
X127888810Y-88082381D01*
X127603095Y-88082381D01*
X127507857Y-88034762D01*
X127460238Y-87987143D01*
X125031667Y-69778571D02*
X125174524Y-69826190D01*
X125222143Y-69873810D01*
X125269762Y-69969048D01*
X125269762Y-70111905D01*
X125222143Y-70207143D01*
X125174524Y-70254762D01*
X125079286Y-70302381D01*
X124698333Y-70302381D01*
X124698333Y-69302381D01*
X125031667Y-69302381D01*
X125126905Y-69350000D01*
X125174524Y-69397619D01*
X125222143Y-69492857D01*
X125222143Y-69588095D01*
X125174524Y-69683333D01*
X125126905Y-69730952D01*
X125031667Y-69778571D01*
X124698333Y-69778571D01*
X125650714Y-70016667D02*
X126126905Y-70016667D01*
X125555476Y-70302381D02*
X125888809Y-69302381D01*
X126222143Y-70302381D01*
X127126905Y-70302381D02*
X126793571Y-69826190D01*
X126555476Y-70302381D02*
X126555476Y-69302381D01*
X126936429Y-69302381D01*
X127031667Y-69350000D01*
X127079286Y-69397619D01*
X127126905Y-69492857D01*
X127126905Y-69635714D01*
X127079286Y-69730952D01*
X127031667Y-69778571D01*
X126936429Y-69826190D01*
X126555476Y-69826190D01*
X127984048Y-69635714D02*
X127984048Y-70302381D01*
X127745952Y-69254762D02*
X127507857Y-69969048D01*
X128126905Y-69969048D01*
X105838334Y-84487143D02*
X105790715Y-84534762D01*
X105647858Y-84582381D01*
X105552620Y-84582381D01*
X105409762Y-84534762D01*
X105314524Y-84439524D01*
X105266905Y-84344286D01*
X105219286Y-84153810D01*
X105219286Y-84010952D01*
X105266905Y-83820476D01*
X105314524Y-83725238D01*
X105409762Y-83630000D01*
X105552620Y-83582381D01*
X105647858Y-83582381D01*
X105790715Y-83630000D01*
X105838334Y-83677619D01*
X106790715Y-84582381D02*
X106219286Y-84582381D01*
X106505000Y-84582381D02*
X106505000Y-83582381D01*
X106409762Y-83725238D01*
X106314524Y-83820476D01*
X106219286Y-83868095D01*
X103981190Y-90677619D02*
X104028809Y-90630000D01*
X104124047Y-90582381D01*
X104362143Y-90582381D01*
X104457381Y-90630000D01*
X104505000Y-90677619D01*
X104552619Y-90772857D01*
X104552619Y-90868095D01*
X104505000Y-91010952D01*
X103933571Y-91582381D01*
X104552619Y-91582381D01*
X104933571Y-90677619D02*
X104981190Y-90630000D01*
X105076428Y-90582381D01*
X105314524Y-90582381D01*
X105409762Y-90630000D01*
X105457381Y-90677619D01*
X105505000Y-90772857D01*
X105505000Y-90868095D01*
X105457381Y-91010952D01*
X104885952Y-91582381D01*
X105505000Y-91582381D01*
X106695476Y-90915714D02*
X106695476Y-91915714D01*
X106695476Y-90963333D02*
X106790714Y-90915714D01*
X106981191Y-90915714D01*
X107076429Y-90963333D01*
X107124048Y-91010952D01*
X107171667Y-91106190D01*
X107171667Y-91391905D01*
X107124048Y-91487143D01*
X107076429Y-91534762D01*
X106981191Y-91582381D01*
X106790714Y-91582381D01*
X106695476Y-91534762D01*
X107933572Y-91058571D02*
X107600238Y-91058571D01*
X107600238Y-91582381D02*
X107600238Y-90582381D01*
X108076429Y-90582381D01*
X144812143Y-75136666D02*
X144859762Y-75184285D01*
X144907381Y-75327142D01*
X144907381Y-75422380D01*
X144859762Y-75565238D01*
X144764524Y-75660476D01*
X144669286Y-75708095D01*
X144478810Y-75755714D01*
X144335952Y-75755714D01*
X144145476Y-75708095D01*
X144050238Y-75660476D01*
X143955000Y-75565238D01*
X143907381Y-75422380D01*
X143907381Y-75327142D01*
X143955000Y-75184285D01*
X144002619Y-75136666D01*
X144002619Y-74755714D02*
X143955000Y-74708095D01*
X143907381Y-74612857D01*
X143907381Y-74374761D01*
X143955000Y-74279523D01*
X144002619Y-74231904D01*
X144097857Y-74184285D01*
X144193095Y-74184285D01*
X144335952Y-74231904D01*
X144907381Y-74803333D01*
X144907381Y-74184285D01*
X151002619Y-76993810D02*
X150955000Y-76946191D01*
X150907381Y-76850953D01*
X150907381Y-76612857D01*
X150955000Y-76517619D01*
X151002619Y-76470000D01*
X151097857Y-76422381D01*
X151193095Y-76422381D01*
X151335952Y-76470000D01*
X151907381Y-77041429D01*
X151907381Y-76422381D01*
X151002619Y-76041429D02*
X150955000Y-75993810D01*
X150907381Y-75898572D01*
X150907381Y-75660476D01*
X150955000Y-75565238D01*
X151002619Y-75517619D01*
X151097857Y-75470000D01*
X151193095Y-75470000D01*
X151335952Y-75517619D01*
X151907381Y-76089048D01*
X151907381Y-75470000D01*
X151240714Y-74279524D02*
X152240714Y-74279524D01*
X151288333Y-74279524D02*
X151240714Y-74184286D01*
X151240714Y-73993809D01*
X151288333Y-73898571D01*
X151335952Y-73850952D01*
X151431190Y-73803333D01*
X151716905Y-73803333D01*
X151812143Y-73850952D01*
X151859762Y-73898571D01*
X151907381Y-73993809D01*
X151907381Y-74184286D01*
X151859762Y-74279524D01*
X151383571Y-73041428D02*
X151383571Y-73374762D01*
X151907381Y-73374762D02*
X150907381Y-73374762D01*
X150907381Y-72898571D01*
X108932143Y-116736666D02*
X108979762Y-116784285D01*
X109027381Y-116927142D01*
X109027381Y-117022380D01*
X108979762Y-117165238D01*
X108884524Y-117260476D01*
X108789286Y-117308095D01*
X108598810Y-117355714D01*
X108455952Y-117355714D01*
X108265476Y-117308095D01*
X108170238Y-117260476D01*
X108075000Y-117165238D01*
X108027381Y-117022380D01*
X108027381Y-116927142D01*
X108075000Y-116784285D01*
X108122619Y-116736666D01*
X108027381Y-116403333D02*
X108027381Y-115784285D01*
X108408333Y-116117619D01*
X108408333Y-115974761D01*
X108455952Y-115879523D01*
X108503571Y-115831904D01*
X108598810Y-115784285D01*
X108836905Y-115784285D01*
X108932143Y-115831904D01*
X108979762Y-115879523D01*
X109027381Y-115974761D01*
X109027381Y-116260476D01*
X108979762Y-116355714D01*
X108932143Y-116403333D01*
X101427381Y-118498571D02*
X101427381Y-119070000D01*
X101427381Y-118784286D02*
X100427381Y-118784286D01*
X100570238Y-118879524D01*
X100665476Y-118974762D01*
X100713095Y-119070000D01*
X100427381Y-117879524D02*
X100427381Y-117784285D01*
X100475000Y-117689047D01*
X100522619Y-117641428D01*
X100617857Y-117593809D01*
X100808333Y-117546190D01*
X101046429Y-117546190D01*
X101236905Y-117593809D01*
X101332143Y-117641428D01*
X101379762Y-117689047D01*
X101427381Y-117784285D01*
X101427381Y-117879524D01*
X101379762Y-117974762D01*
X101332143Y-118022381D01*
X101236905Y-118070000D01*
X101046429Y-118117619D01*
X100808333Y-118117619D01*
X100617857Y-118070000D01*
X100522619Y-118022381D01*
X100475000Y-117974762D01*
X100427381Y-117879524D01*
X100427381Y-116927143D02*
X100427381Y-116831904D01*
X100475000Y-116736666D01*
X100522619Y-116689047D01*
X100617857Y-116641428D01*
X100808333Y-116593809D01*
X101046429Y-116593809D01*
X101236905Y-116641428D01*
X101332143Y-116689047D01*
X101379762Y-116736666D01*
X101427381Y-116831904D01*
X101427381Y-116927143D01*
X101379762Y-117022381D01*
X101332143Y-117070000D01*
X101236905Y-117117619D01*
X101046429Y-117165238D01*
X100808333Y-117165238D01*
X100617857Y-117117619D01*
X100522619Y-117070000D01*
X100475000Y-117022381D01*
X100427381Y-116927143D01*
X100760714Y-114974761D02*
X101427381Y-114974761D01*
X100760714Y-115403333D02*
X101284524Y-115403333D01*
X101379762Y-115355714D01*
X101427381Y-115260476D01*
X101427381Y-115117618D01*
X101379762Y-115022380D01*
X101332143Y-114974761D01*
X100903571Y-114165237D02*
X100903571Y-114498571D01*
X101427381Y-114498571D02*
X100427381Y-114498571D01*
X100427381Y-114022380D01*
X111472143Y-106576666D02*
X111519762Y-106624285D01*
X111567381Y-106767142D01*
X111567381Y-106862380D01*
X111519762Y-107005238D01*
X111424524Y-107100476D01*
X111329286Y-107148095D01*
X111138810Y-107195714D01*
X110995952Y-107195714D01*
X110805476Y-107148095D01*
X110710238Y-107100476D01*
X110615000Y-107005238D01*
X110567381Y-106862380D01*
X110567381Y-106767142D01*
X110615000Y-106624285D01*
X110662619Y-106576666D01*
X110900714Y-105719523D02*
X111567381Y-105719523D01*
X110519762Y-105957619D02*
X111234048Y-106195714D01*
X111234048Y-105576666D01*
X103967381Y-108338571D02*
X103967381Y-108910000D01*
X103967381Y-108624286D02*
X102967381Y-108624286D01*
X103110238Y-108719524D01*
X103205476Y-108814762D01*
X103253095Y-108910000D01*
X102967381Y-107719524D02*
X102967381Y-107624285D01*
X103015000Y-107529047D01*
X103062619Y-107481428D01*
X103157857Y-107433809D01*
X103348333Y-107386190D01*
X103586429Y-107386190D01*
X103776905Y-107433809D01*
X103872143Y-107481428D01*
X103919762Y-107529047D01*
X103967381Y-107624285D01*
X103967381Y-107719524D01*
X103919762Y-107814762D01*
X103872143Y-107862381D01*
X103776905Y-107910000D01*
X103586429Y-107957619D01*
X103348333Y-107957619D01*
X103157857Y-107910000D01*
X103062619Y-107862381D01*
X103015000Y-107814762D01*
X102967381Y-107719524D01*
X102967381Y-106767143D02*
X102967381Y-106671904D01*
X103015000Y-106576666D01*
X103062619Y-106529047D01*
X103157857Y-106481428D01*
X103348333Y-106433809D01*
X103586429Y-106433809D01*
X103776905Y-106481428D01*
X103872143Y-106529047D01*
X103919762Y-106576666D01*
X103967381Y-106671904D01*
X103967381Y-106767143D01*
X103919762Y-106862381D01*
X103872143Y-106910000D01*
X103776905Y-106957619D01*
X103586429Y-107005238D01*
X103348333Y-107005238D01*
X103157857Y-106957619D01*
X103062619Y-106910000D01*
X103015000Y-106862381D01*
X102967381Y-106767143D01*
X103300714Y-104814761D02*
X103967381Y-104814761D01*
X103300714Y-105243333D02*
X103824524Y-105243333D01*
X103919762Y-105195714D01*
X103967381Y-105100476D01*
X103967381Y-104957618D01*
X103919762Y-104862380D01*
X103872143Y-104814761D01*
X103443571Y-104005237D02*
X103443571Y-104338571D01*
X103967381Y-104338571D02*
X102967381Y-104338571D01*
X102967381Y-103862380D01*
X148121810Y-98813881D02*
X148121810Y-97813881D01*
X149169429Y-98718643D02*
X149121810Y-98766262D01*
X148978953Y-98813881D01*
X148883715Y-98813881D01*
X148740857Y-98766262D01*
X148645619Y-98671024D01*
X148598000Y-98575786D01*
X148550381Y-98385310D01*
X148550381Y-98242452D01*
X148598000Y-98051976D01*
X148645619Y-97956738D01*
X148740857Y-97861500D01*
X148883715Y-97813881D01*
X148978953Y-97813881D01*
X149121810Y-97861500D01*
X149169429Y-97909119D01*
X150121810Y-98813881D02*
X149550381Y-98813881D01*
X149836095Y-98813881D02*
X149836095Y-97813881D01*
X149740857Y-97956738D01*
X149645619Y-98051976D01*
X149550381Y-98099595D01*
X145868000Y-99798167D02*
X146344191Y-99798167D01*
X145772762Y-100083881D02*
X146106095Y-99083881D01*
X146439429Y-100083881D01*
X146629905Y-99083881D02*
X147201334Y-99083881D01*
X146915619Y-100083881D02*
X146915619Y-99083881D01*
X147534667Y-100083881D02*
X147534667Y-99083881D01*
X147868001Y-99798167D01*
X148201334Y-99083881D01*
X148201334Y-100083881D01*
X148677524Y-99560071D02*
X149010858Y-99560071D01*
X149153715Y-100083881D02*
X148677524Y-100083881D01*
X148677524Y-99083881D01*
X149153715Y-99083881D01*
X150106096Y-99131500D02*
X150010858Y-99083881D01*
X149868001Y-99083881D01*
X149725143Y-99131500D01*
X149629905Y-99226738D01*
X149582286Y-99321976D01*
X149534667Y-99512452D01*
X149534667Y-99655310D01*
X149582286Y-99845786D01*
X149629905Y-99941024D01*
X149725143Y-100036262D01*
X149868001Y-100083881D01*
X149963239Y-100083881D01*
X150106096Y-100036262D01*
X150153715Y-99988643D01*
X150153715Y-99655310D01*
X149963239Y-99655310D01*
X150534667Y-99798167D02*
X151010858Y-99798167D01*
X150439429Y-100083881D02*
X150772762Y-99083881D01*
X151106096Y-100083881D01*
X151344191Y-99083881D02*
X151963239Y-99083881D01*
X151629905Y-99464833D01*
X151772763Y-99464833D01*
X151868001Y-99512452D01*
X151915620Y-99560071D01*
X151963239Y-99655310D01*
X151963239Y-99893405D01*
X151915620Y-99988643D01*
X151868001Y-100036262D01*
X151772763Y-100083881D01*
X151487048Y-100083881D01*
X151391810Y-100036262D01*
X151344191Y-99988643D01*
X152344191Y-99179119D02*
X152391810Y-99131500D01*
X152487048Y-99083881D01*
X152725144Y-99083881D01*
X152820382Y-99131500D01*
X152868001Y-99179119D01*
X152915620Y-99274357D01*
X152915620Y-99369595D01*
X152868001Y-99512452D01*
X152296572Y-100083881D01*
X152915620Y-100083881D01*
X153487048Y-99512452D02*
X153391810Y-99464833D01*
X153344191Y-99417214D01*
X153296572Y-99321976D01*
X153296572Y-99274357D01*
X153344191Y-99179119D01*
X153391810Y-99131500D01*
X153487048Y-99083881D01*
X153677525Y-99083881D01*
X153772763Y-99131500D01*
X153820382Y-99179119D01*
X153868001Y-99274357D01*
X153868001Y-99321976D01*
X153820382Y-99417214D01*
X153772763Y-99464833D01*
X153677525Y-99512452D01*
X153487048Y-99512452D01*
X153391810Y-99560071D01*
X153344191Y-99607690D01*
X153296572Y-99702929D01*
X153296572Y-99893405D01*
X153344191Y-99988643D01*
X153391810Y-100036262D01*
X153487048Y-100083881D01*
X153677525Y-100083881D01*
X153772763Y-100036262D01*
X153820382Y-99988643D01*
X153868001Y-99893405D01*
X153868001Y-99702929D01*
X153820382Y-99607690D01*
X153772763Y-99560071D01*
X153677525Y-99512452D01*
X154296572Y-100083881D02*
X154296572Y-99083881D01*
X154677525Y-99083881D01*
X154772763Y-99131500D01*
X154820382Y-99179119D01*
X154868001Y-99274357D01*
X154868001Y-99417214D01*
X154820382Y-99512452D01*
X154772763Y-99560071D01*
X154677525Y-99607690D01*
X154296572Y-99607690D01*
X124682334Y-122372381D02*
X124349000Y-121896190D01*
X124110905Y-122372381D02*
X124110905Y-121372381D01*
X124491858Y-121372381D01*
X124587096Y-121420000D01*
X124634715Y-121467619D01*
X124682334Y-121562857D01*
X124682334Y-121705714D01*
X124634715Y-121800952D01*
X124587096Y-121848571D01*
X124491858Y-121896190D01*
X124110905Y-121896190D01*
X125682334Y-122372381D02*
X125349000Y-121896190D01*
X125110905Y-122372381D02*
X125110905Y-121372381D01*
X125491858Y-121372381D01*
X125587096Y-121420000D01*
X125634715Y-121467619D01*
X125682334Y-121562857D01*
X125682334Y-121705714D01*
X125634715Y-121800952D01*
X125587096Y-121848571D01*
X125491858Y-121896190D01*
X125110905Y-121896190D01*
X126634715Y-122372381D02*
X126063286Y-122372381D01*
X126349000Y-122372381D02*
X126349000Y-121372381D01*
X126253762Y-121515238D01*
X126158524Y-121610476D01*
X126063286Y-121658095D01*
X124682334Y-104592381D02*
X124349000Y-104116190D01*
X124110905Y-104592381D02*
X124110905Y-103592381D01*
X124491858Y-103592381D01*
X124587096Y-103640000D01*
X124634715Y-103687619D01*
X124682334Y-103782857D01*
X124682334Y-103925714D01*
X124634715Y-104020952D01*
X124587096Y-104068571D01*
X124491858Y-104116190D01*
X124110905Y-104116190D01*
X125682334Y-104592381D02*
X125349000Y-104116190D01*
X125110905Y-104592381D02*
X125110905Y-103592381D01*
X125491858Y-103592381D01*
X125587096Y-103640000D01*
X125634715Y-103687619D01*
X125682334Y-103782857D01*
X125682334Y-103925714D01*
X125634715Y-104020952D01*
X125587096Y-104068571D01*
X125491858Y-104116190D01*
X125110905Y-104116190D01*
X126063286Y-103687619D02*
X126110905Y-103640000D01*
X126206143Y-103592381D01*
X126444239Y-103592381D01*
X126539477Y-103640000D01*
X126587096Y-103687619D01*
X126634715Y-103782857D01*
X126634715Y-103878095D01*
X126587096Y-104020952D01*
X126015667Y-104592381D01*
X126634715Y-104592381D01*
X114141334Y-87383881D02*
X113808000Y-86907690D01*
X113569905Y-87383881D02*
X113569905Y-86383881D01*
X113950858Y-86383881D01*
X114046096Y-86431500D01*
X114093715Y-86479119D01*
X114141334Y-86574357D01*
X114141334Y-86717214D01*
X114093715Y-86812452D01*
X114046096Y-86860071D01*
X113950858Y-86907690D01*
X113569905Y-86907690D01*
X115141334Y-87383881D02*
X114808000Y-86907690D01*
X114569905Y-87383881D02*
X114569905Y-86383881D01*
X114950858Y-86383881D01*
X115046096Y-86431500D01*
X115093715Y-86479119D01*
X115141334Y-86574357D01*
X115141334Y-86717214D01*
X115093715Y-86812452D01*
X115046096Y-86860071D01*
X114950858Y-86907690D01*
X114569905Y-86907690D01*
X115474667Y-86383881D02*
X116093715Y-86383881D01*
X115760381Y-86764833D01*
X115903239Y-86764833D01*
X115998477Y-86812452D01*
X116046096Y-86860071D01*
X116093715Y-86955310D01*
X116093715Y-87193405D01*
X116046096Y-87288643D01*
X115998477Y-87336262D01*
X115903239Y-87383881D01*
X115617524Y-87383881D01*
X115522286Y-87336262D01*
X115474667Y-87288643D01*
X115411334Y-69603881D02*
X115078000Y-69127690D01*
X114839905Y-69603881D02*
X114839905Y-68603881D01*
X115220858Y-68603881D01*
X115316096Y-68651500D01*
X115363715Y-68699119D01*
X115411334Y-68794357D01*
X115411334Y-68937214D01*
X115363715Y-69032452D01*
X115316096Y-69080071D01*
X115220858Y-69127690D01*
X114839905Y-69127690D01*
X116411334Y-69603881D02*
X116078000Y-69127690D01*
X115839905Y-69603881D02*
X115839905Y-68603881D01*
X116220858Y-68603881D01*
X116316096Y-68651500D01*
X116363715Y-68699119D01*
X116411334Y-68794357D01*
X116411334Y-68937214D01*
X116363715Y-69032452D01*
X116316096Y-69080071D01*
X116220858Y-69127690D01*
X115839905Y-69127690D01*
X117268477Y-68937214D02*
X117268477Y-69603881D01*
X117030381Y-68556262D02*
X116792286Y-69270548D01*
X117411334Y-69270548D01*
X110437562Y-78866833D02*
X110485181Y-78723976D01*
X110485181Y-78485880D01*
X110437562Y-78390642D01*
X110389943Y-78343023D01*
X110294705Y-78295404D01*
X110199467Y-78295404D01*
X110104229Y-78343023D01*
X110056610Y-78390642D01*
X110008990Y-78485880D01*
X109961371Y-78676357D01*
X109913752Y-78771595D01*
X109866133Y-78819214D01*
X109770895Y-78866833D01*
X109675657Y-78866833D01*
X109580419Y-78819214D01*
X109532800Y-78771595D01*
X109485181Y-78676357D01*
X109485181Y-78438261D01*
X109532800Y-78295404D01*
X109485181Y-77962071D02*
X110485181Y-77723976D01*
X109770895Y-77533499D01*
X110485181Y-77343023D01*
X109485181Y-77104928D01*
X110485181Y-76200166D02*
X110485181Y-76771595D01*
X110485181Y-76485881D02*
X109485181Y-76485881D01*
X109628038Y-76581119D01*
X109723276Y-76676357D01*
X109770895Y-76771595D01*
X141581190Y-86836191D02*
X142057381Y-86836191D01*
X141057381Y-87169524D02*
X141581190Y-86836191D01*
X141057381Y-86502857D01*
X142057381Y-85645714D02*
X142057381Y-86217143D01*
X142057381Y-85931429D02*
X141057381Y-85931429D01*
X141200238Y-86026667D01*
X141295476Y-86121905D01*
X141343095Y-86217143D01*
X149677381Y-89621904D02*
X149677381Y-90193333D01*
X149677381Y-89907619D02*
X148677381Y-89907619D01*
X148820238Y-90002857D01*
X148915476Y-90098095D01*
X148963095Y-90193333D01*
X148677381Y-88764761D02*
X148677381Y-88955238D01*
X148725000Y-89050476D01*
X148772619Y-89098095D01*
X148915476Y-89193333D01*
X149105952Y-89240952D01*
X149486905Y-89240952D01*
X149582143Y-89193333D01*
X149629762Y-89145714D01*
X149677381Y-89050476D01*
X149677381Y-88859999D01*
X149629762Y-88764761D01*
X149582143Y-88717142D01*
X149486905Y-88669523D01*
X149248810Y-88669523D01*
X149153571Y-88717142D01*
X149105952Y-88764761D01*
X149058333Y-88859999D01*
X149058333Y-89050476D01*
X149105952Y-89145714D01*
X149153571Y-89193333D01*
X149248810Y-89240952D01*
X149582143Y-88240952D02*
X149629762Y-88193333D01*
X149677381Y-88240952D01*
X149629762Y-88288571D01*
X149582143Y-88240952D01*
X149677381Y-88240952D01*
X148677381Y-87574286D02*
X148677381Y-87479047D01*
X148725000Y-87383809D01*
X148772619Y-87336190D01*
X148867857Y-87288571D01*
X149058333Y-87240952D01*
X149296429Y-87240952D01*
X149486905Y-87288571D01*
X149582143Y-87336190D01*
X149629762Y-87383809D01*
X149677381Y-87479047D01*
X149677381Y-87574286D01*
X149629762Y-87669524D01*
X149582143Y-87717143D01*
X149486905Y-87764762D01*
X149296429Y-87812381D01*
X149058333Y-87812381D01*
X148867857Y-87764762D01*
X148772619Y-87717143D01*
X148725000Y-87669524D01*
X148677381Y-87574286D01*
X148677381Y-86621905D02*
X148677381Y-86526666D01*
X148725000Y-86431428D01*
X148772619Y-86383809D01*
X148867857Y-86336190D01*
X149058333Y-86288571D01*
X149296429Y-86288571D01*
X149486905Y-86336190D01*
X149582143Y-86383809D01*
X149629762Y-86431428D01*
X149677381Y-86526666D01*
X149677381Y-86621905D01*
X149629762Y-86717143D01*
X149582143Y-86764762D01*
X149486905Y-86812381D01*
X149296429Y-86860000D01*
X149058333Y-86860000D01*
X148867857Y-86812381D01*
X148772619Y-86764762D01*
X148725000Y-86717143D01*
X148677381Y-86621905D01*
X149677381Y-85098095D02*
X148677381Y-85098095D01*
X149391667Y-84764761D01*
X148677381Y-84431428D01*
X149677381Y-84431428D01*
X149677381Y-83955238D02*
X148677381Y-83955238D01*
X149153571Y-83955238D02*
X149153571Y-83383809D01*
X149677381Y-83383809D02*
X148677381Y-83383809D01*
X149010714Y-83002857D02*
X149010714Y-82479047D01*
X149677381Y-83002857D01*
X149677381Y-82479047D01*
X96084667Y-68333881D02*
X96084667Y-67333881D01*
X96418001Y-68048167D01*
X96751334Y-67333881D01*
X96751334Y-68333881D01*
X97370381Y-68333881D02*
X97275143Y-68286262D01*
X97227524Y-68238643D01*
X97179905Y-68143405D01*
X97179905Y-67857690D01*
X97227524Y-67762452D01*
X97275143Y-67714833D01*
X97370381Y-67667214D01*
X97513239Y-67667214D01*
X97608477Y-67714833D01*
X97656096Y-67762452D01*
X97703715Y-67857690D01*
X97703715Y-68143405D01*
X97656096Y-68238643D01*
X97608477Y-68286262D01*
X97513239Y-68333881D01*
X97370381Y-68333881D01*
X98560858Y-67667214D02*
X98560858Y-68333881D01*
X98132286Y-67667214D02*
X98132286Y-68191024D01*
X98179905Y-68286262D01*
X98275143Y-68333881D01*
X98418001Y-68333881D01*
X98513239Y-68286262D01*
X98560858Y-68238643D01*
X99037048Y-67667214D02*
X99037048Y-68333881D01*
X99037048Y-67762452D02*
X99084667Y-67714833D01*
X99179905Y-67667214D01*
X99322763Y-67667214D01*
X99418001Y-67714833D01*
X99465620Y-67810071D01*
X99465620Y-68333881D01*
X99798953Y-67667214D02*
X100179905Y-67667214D01*
X99941810Y-67333881D02*
X99941810Y-68191024D01*
X99989429Y-68286262D01*
X100084667Y-68333881D01*
X100179905Y-68333881D01*
X100513239Y-68333881D02*
X100513239Y-67667214D01*
X100513239Y-67333881D02*
X100465620Y-67381500D01*
X100513239Y-67429119D01*
X100560858Y-67381500D01*
X100513239Y-67333881D01*
X100513239Y-67429119D01*
X100989429Y-67667214D02*
X100989429Y-68333881D01*
X100989429Y-67762452D02*
X101037048Y-67714833D01*
X101132286Y-67667214D01*
X101275144Y-67667214D01*
X101370382Y-67714833D01*
X101418001Y-67810071D01*
X101418001Y-68333881D01*
X102322763Y-67667214D02*
X102322763Y-68476738D01*
X102275144Y-68571976D01*
X102227525Y-68619595D01*
X102132286Y-68667214D01*
X101989429Y-68667214D01*
X101894191Y-68619595D01*
X102322763Y-68286262D02*
X102227525Y-68333881D01*
X102037048Y-68333881D01*
X101941810Y-68286262D01*
X101894191Y-68238643D01*
X101846572Y-68143405D01*
X101846572Y-67857690D01*
X101894191Y-67762452D01*
X101941810Y-67714833D01*
X102037048Y-67667214D01*
X102227525Y-67667214D01*
X102322763Y-67714833D01*
X102798953Y-68333881D02*
X102798953Y-67333881D01*
X102798953Y-67810071D02*
X103370382Y-67810071D01*
X103370382Y-68333881D02*
X103370382Y-67333881D01*
X103989429Y-68333881D02*
X103894191Y-68286262D01*
X103846572Y-68238643D01*
X103798953Y-68143405D01*
X103798953Y-67857690D01*
X103846572Y-67762452D01*
X103894191Y-67714833D01*
X103989429Y-67667214D01*
X104132287Y-67667214D01*
X104227525Y-67714833D01*
X104275144Y-67762452D01*
X104322763Y-67857690D01*
X104322763Y-68143405D01*
X104275144Y-68238643D01*
X104227525Y-68286262D01*
X104132287Y-68333881D01*
X103989429Y-68333881D01*
X104894191Y-68333881D02*
X104798953Y-68286262D01*
X104751334Y-68191024D01*
X104751334Y-67333881D01*
X105656097Y-68286262D02*
X105560859Y-68333881D01*
X105370382Y-68333881D01*
X105275144Y-68286262D01*
X105227525Y-68191024D01*
X105227525Y-67810071D01*
X105275144Y-67714833D01*
X105370382Y-67667214D01*
X105560859Y-67667214D01*
X105656097Y-67714833D01*
X105703716Y-67810071D01*
X105703716Y-67905310D01*
X105227525Y-68000548D01*
X105894192Y-68429119D02*
X106656097Y-68429119D01*
X106846573Y-67429119D02*
X106894192Y-67381500D01*
X106989430Y-67333881D01*
X107227526Y-67333881D01*
X107322764Y-67381500D01*
X107370383Y-67429119D01*
X107418002Y-67524357D01*
X107418002Y-67619595D01*
X107370383Y-67762452D01*
X106798954Y-68333881D01*
X107418002Y-68333881D01*
X107846573Y-68238643D02*
X107894192Y-68286262D01*
X107846573Y-68333881D01*
X107798954Y-68286262D01*
X107846573Y-68238643D01*
X107846573Y-68333881D01*
X108227525Y-67333881D02*
X108894192Y-67333881D01*
X108465620Y-68333881D01*
X109275144Y-68333881D02*
X109275144Y-67667214D01*
X109275144Y-67762452D02*
X109322763Y-67714833D01*
X109418001Y-67667214D01*
X109560859Y-67667214D01*
X109656097Y-67714833D01*
X109703716Y-67810071D01*
X109703716Y-68333881D01*
X109703716Y-67810071D02*
X109751335Y-67714833D01*
X109846573Y-67667214D01*
X109989430Y-67667214D01*
X110084668Y-67714833D01*
X110132287Y-67810071D01*
X110132287Y-68333881D01*
X110608477Y-68333881D02*
X110608477Y-67667214D01*
X110608477Y-67762452D02*
X110656096Y-67714833D01*
X110751334Y-67667214D01*
X110894192Y-67667214D01*
X110989430Y-67714833D01*
X111037049Y-67810071D01*
X111037049Y-68333881D01*
X111037049Y-67810071D02*
X111084668Y-67714833D01*
X111179906Y-67667214D01*
X111322763Y-67667214D01*
X111418001Y-67714833D01*
X111465620Y-67810071D01*
X111465620Y-68333881D01*
X111703715Y-68429119D02*
X112465620Y-68429119D01*
X112703715Y-68333881D02*
X112703715Y-67333881D01*
X113037049Y-68048167D01*
X113370382Y-67333881D01*
X113370382Y-68333881D01*
X113798953Y-67429119D02*
X113846572Y-67381500D01*
X113941810Y-67333881D01*
X114179906Y-67333881D01*
X114275144Y-67381500D01*
X114322763Y-67429119D01*
X114370382Y-67524357D01*
X114370382Y-67619595D01*
X114322763Y-67762452D01*
X113751334Y-68333881D01*
X114370382Y-68333881D01*
X114798953Y-68238643D02*
X114846572Y-68286262D01*
X114798953Y-68333881D01*
X114751334Y-68286262D01*
X114798953Y-68238643D01*
X114798953Y-68333881D01*
X115751334Y-67333881D02*
X115275143Y-67333881D01*
X115227524Y-67810071D01*
X115275143Y-67762452D01*
X115370381Y-67714833D01*
X115608477Y-67714833D01*
X115703715Y-67762452D01*
X115751334Y-67810071D01*
X115798953Y-67905310D01*
X115798953Y-68143405D01*
X115751334Y-68238643D01*
X115703715Y-68286262D01*
X115608477Y-68333881D01*
X115370381Y-68333881D01*
X115275143Y-68286262D01*
X115227524Y-68238643D01*
X151574667Y-84208881D02*
X151241333Y-83732690D01*
X151003238Y-84208881D02*
X151003238Y-83208881D01*
X151384191Y-83208881D01*
X151479429Y-83256500D01*
X151527048Y-83304119D01*
X151574667Y-83399357D01*
X151574667Y-83542214D01*
X151527048Y-83637452D01*
X151479429Y-83685071D01*
X151384191Y-83732690D01*
X151003238Y-83732690D01*
X152003238Y-83685071D02*
X152336572Y-83685071D01*
X152479429Y-84208881D02*
X152003238Y-84208881D01*
X152003238Y-83208881D01*
X152479429Y-83208881D01*
X153241334Y-83685071D02*
X152908000Y-83685071D01*
X152908000Y-84208881D02*
X152908000Y-83208881D01*
X153384191Y-83208881D01*
X153908000Y-83208881D02*
X153908000Y-83446976D01*
X153669905Y-83351738D02*
X153908000Y-83446976D01*
X154146096Y-83351738D01*
X153765143Y-83637452D02*
X153908000Y-83446976D01*
X154050858Y-83637452D01*
X154669905Y-83208881D02*
X154669905Y-83446976D01*
X154431810Y-83351738D02*
X154669905Y-83446976D01*
X154908001Y-83351738D01*
X154527048Y-83637452D02*
X154669905Y-83446976D01*
X154812763Y-83637452D01*
X156535381Y-94638167D02*
X155535381Y-94638167D01*
X156249667Y-94304833D01*
X155535381Y-93971500D01*
X156535381Y-93971500D01*
X156535381Y-93352453D02*
X156487762Y-93447691D01*
X156440143Y-93495310D01*
X156344905Y-93542929D01*
X156059190Y-93542929D01*
X155963952Y-93495310D01*
X155916333Y-93447691D01*
X155868714Y-93352453D01*
X155868714Y-93209595D01*
X155916333Y-93114357D01*
X155963952Y-93066738D01*
X156059190Y-93019119D01*
X156344905Y-93019119D01*
X156440143Y-93066738D01*
X156487762Y-93114357D01*
X156535381Y-93209595D01*
X156535381Y-93352453D01*
X155868714Y-92161976D02*
X156535381Y-92161976D01*
X155868714Y-92590548D02*
X156392524Y-92590548D01*
X156487762Y-92542929D01*
X156535381Y-92447691D01*
X156535381Y-92304833D01*
X156487762Y-92209595D01*
X156440143Y-92161976D01*
X155868714Y-91685786D02*
X156535381Y-91685786D01*
X155963952Y-91685786D02*
X155916333Y-91638167D01*
X155868714Y-91542929D01*
X155868714Y-91400071D01*
X155916333Y-91304833D01*
X156011571Y-91257214D01*
X156535381Y-91257214D01*
X155868714Y-90923881D02*
X155868714Y-90542929D01*
X155535381Y-90781024D02*
X156392524Y-90781024D01*
X156487762Y-90733405D01*
X156535381Y-90638167D01*
X156535381Y-90542929D01*
X156535381Y-90209595D02*
X155868714Y-90209595D01*
X155535381Y-90209595D02*
X155583000Y-90257214D01*
X155630619Y-90209595D01*
X155583000Y-90161976D01*
X155535381Y-90209595D01*
X155630619Y-90209595D01*
X155868714Y-89733405D02*
X156535381Y-89733405D01*
X155963952Y-89733405D02*
X155916333Y-89685786D01*
X155868714Y-89590548D01*
X155868714Y-89447690D01*
X155916333Y-89352452D01*
X156011571Y-89304833D01*
X156535381Y-89304833D01*
X155868714Y-88400071D02*
X156678238Y-88400071D01*
X156773476Y-88447690D01*
X156821095Y-88495309D01*
X156868714Y-88590548D01*
X156868714Y-88733405D01*
X156821095Y-88828643D01*
X156487762Y-88400071D02*
X156535381Y-88495309D01*
X156535381Y-88685786D01*
X156487762Y-88781024D01*
X156440143Y-88828643D01*
X156344905Y-88876262D01*
X156059190Y-88876262D01*
X155963952Y-88828643D01*
X155916333Y-88781024D01*
X155868714Y-88685786D01*
X155868714Y-88495309D01*
X155916333Y-88400071D01*
X156535381Y-87161976D02*
X155535381Y-87161976D01*
X156011571Y-87161976D02*
X156011571Y-86590547D01*
X156535381Y-86590547D02*
X155535381Y-86590547D01*
X156535381Y-85971500D02*
X156487762Y-86066738D01*
X156440143Y-86114357D01*
X156344905Y-86161976D01*
X156059190Y-86161976D01*
X155963952Y-86114357D01*
X155916333Y-86066738D01*
X155868714Y-85971500D01*
X155868714Y-85828642D01*
X155916333Y-85733404D01*
X155963952Y-85685785D01*
X156059190Y-85638166D01*
X156344905Y-85638166D01*
X156440143Y-85685785D01*
X156487762Y-85733404D01*
X156535381Y-85828642D01*
X156535381Y-85971500D01*
X156535381Y-85066738D02*
X156487762Y-85161976D01*
X156392524Y-85209595D01*
X155535381Y-85209595D01*
X156487762Y-84304832D02*
X156535381Y-84400070D01*
X156535381Y-84590547D01*
X156487762Y-84685785D01*
X156392524Y-84733404D01*
X156011571Y-84733404D01*
X155916333Y-84685785D01*
X155868714Y-84590547D01*
X155868714Y-84400070D01*
X155916333Y-84304832D01*
X156011571Y-84257213D01*
X156106810Y-84257213D01*
X156202048Y-84733404D01*
X99460381Y-117474833D02*
X98984190Y-117808167D01*
X99460381Y-118046262D02*
X98460381Y-118046262D01*
X98460381Y-117665309D01*
X98508000Y-117570071D01*
X98555619Y-117522452D01*
X98650857Y-117474833D01*
X98793714Y-117474833D01*
X98888952Y-117522452D01*
X98936571Y-117570071D01*
X98984190Y-117665309D01*
X98984190Y-118046262D01*
X98936571Y-117046262D02*
X98936571Y-116712928D01*
X99460381Y-116570071D02*
X99460381Y-117046262D01*
X98460381Y-117046262D01*
X98460381Y-116570071D01*
X98936571Y-115808166D02*
X98936571Y-116141500D01*
X99460381Y-116141500D02*
X98460381Y-116141500D01*
X98460381Y-115665309D01*
X98460381Y-115141500D02*
X98698476Y-115141500D01*
X98603238Y-115379595D02*
X98698476Y-115141500D01*
X98603238Y-114903404D01*
X98888952Y-115284357D02*
X98698476Y-115141500D01*
X98888952Y-114998642D01*
X98460381Y-114379595D02*
X98698476Y-114379595D01*
X98603238Y-114617690D02*
X98698476Y-114379595D01*
X98603238Y-114141499D01*
X98888952Y-114522452D02*
X98698476Y-114379595D01*
X98888952Y-114236737D01*
X94940381Y-113688167D02*
X93940381Y-113688167D01*
X94654667Y-113354833D01*
X93940381Y-113021500D01*
X94940381Y-113021500D01*
X94940381Y-112402453D02*
X94892762Y-112497691D01*
X94845143Y-112545310D01*
X94749905Y-112592929D01*
X94464190Y-112592929D01*
X94368952Y-112545310D01*
X94321333Y-112497691D01*
X94273714Y-112402453D01*
X94273714Y-112259595D01*
X94321333Y-112164357D01*
X94368952Y-112116738D01*
X94464190Y-112069119D01*
X94749905Y-112069119D01*
X94845143Y-112116738D01*
X94892762Y-112164357D01*
X94940381Y-112259595D01*
X94940381Y-112402453D01*
X94273714Y-111211976D02*
X94940381Y-111211976D01*
X94273714Y-111640548D02*
X94797524Y-111640548D01*
X94892762Y-111592929D01*
X94940381Y-111497691D01*
X94940381Y-111354833D01*
X94892762Y-111259595D01*
X94845143Y-111211976D01*
X94273714Y-110735786D02*
X94940381Y-110735786D01*
X94368952Y-110735786D02*
X94321333Y-110688167D01*
X94273714Y-110592929D01*
X94273714Y-110450071D01*
X94321333Y-110354833D01*
X94416571Y-110307214D01*
X94940381Y-110307214D01*
X94273714Y-109973881D02*
X94273714Y-109592929D01*
X93940381Y-109831024D02*
X94797524Y-109831024D01*
X94892762Y-109783405D01*
X94940381Y-109688167D01*
X94940381Y-109592929D01*
X94940381Y-109259595D02*
X94273714Y-109259595D01*
X93940381Y-109259595D02*
X93988000Y-109307214D01*
X94035619Y-109259595D01*
X93988000Y-109211976D01*
X93940381Y-109259595D01*
X94035619Y-109259595D01*
X94273714Y-108783405D02*
X94940381Y-108783405D01*
X94368952Y-108783405D02*
X94321333Y-108735786D01*
X94273714Y-108640548D01*
X94273714Y-108497690D01*
X94321333Y-108402452D01*
X94416571Y-108354833D01*
X94940381Y-108354833D01*
X94273714Y-107450071D02*
X95083238Y-107450071D01*
X95178476Y-107497690D01*
X95226095Y-107545309D01*
X95273714Y-107640548D01*
X95273714Y-107783405D01*
X95226095Y-107878643D01*
X94892762Y-107450071D02*
X94940381Y-107545309D01*
X94940381Y-107735786D01*
X94892762Y-107831024D01*
X94845143Y-107878643D01*
X94749905Y-107926262D01*
X94464190Y-107926262D01*
X94368952Y-107878643D01*
X94321333Y-107831024D01*
X94273714Y-107735786D01*
X94273714Y-107545309D01*
X94321333Y-107450071D01*
X94940381Y-106211976D02*
X93940381Y-106211976D01*
X94416571Y-106211976D02*
X94416571Y-105640547D01*
X94940381Y-105640547D02*
X93940381Y-105640547D01*
X94940381Y-105021500D02*
X94892762Y-105116738D01*
X94845143Y-105164357D01*
X94749905Y-105211976D01*
X94464190Y-105211976D01*
X94368952Y-105164357D01*
X94321333Y-105116738D01*
X94273714Y-105021500D01*
X94273714Y-104878642D01*
X94321333Y-104783404D01*
X94368952Y-104735785D01*
X94464190Y-104688166D01*
X94749905Y-104688166D01*
X94845143Y-104735785D01*
X94892762Y-104783404D01*
X94940381Y-104878642D01*
X94940381Y-105021500D01*
X94940381Y-104116738D02*
X94892762Y-104211976D01*
X94797524Y-104259595D01*
X93940381Y-104259595D01*
X94892762Y-103354832D02*
X94940381Y-103450070D01*
X94940381Y-103640547D01*
X94892762Y-103735785D01*
X94797524Y-103783404D01*
X94416571Y-103783404D01*
X94321333Y-103735785D01*
X94273714Y-103640547D01*
X94273714Y-103450070D01*
X94321333Y-103354832D01*
X94416571Y-103307213D01*
X94511810Y-103307213D01*
X94607048Y-103783404D01*
X98806095Y-119403881D02*
X98806095Y-120213405D01*
X98853714Y-120308643D01*
X98901333Y-120356262D01*
X98996571Y-120403881D01*
X99187048Y-120403881D01*
X99282286Y-120356262D01*
X99329905Y-120308643D01*
X99377524Y-120213405D01*
X99377524Y-119403881D01*
X100282286Y-119403881D02*
X100091809Y-119403881D01*
X99996571Y-119451500D01*
X99948952Y-119499119D01*
X99853714Y-119641976D01*
X99806095Y-119832452D01*
X99806095Y-120213405D01*
X99853714Y-120308643D01*
X99901333Y-120356262D01*
X99996571Y-120403881D01*
X100187048Y-120403881D01*
X100282286Y-120356262D01*
X100329905Y-120308643D01*
X100377524Y-120213405D01*
X100377524Y-119975310D01*
X100329905Y-119880071D01*
X100282286Y-119832452D01*
X100187048Y-119784833D01*
X99996571Y-119784833D01*
X99901333Y-119832452D01*
X99853714Y-119880071D01*
X99806095Y-119975310D01*
X98671334Y-143263881D02*
X98195143Y-143263881D01*
X98195143Y-142263881D01*
X99004667Y-143263881D02*
X99004667Y-142263881D01*
X99338001Y-142978167D01*
X99671334Y-142263881D01*
X99671334Y-143263881D01*
X100052286Y-142263881D02*
X100718953Y-142263881D01*
X100290381Y-143263881D01*
X101242762Y-142692452D02*
X101147524Y-142644833D01*
X101099905Y-142597214D01*
X101052286Y-142501976D01*
X101052286Y-142454357D01*
X101099905Y-142359119D01*
X101147524Y-142311500D01*
X101242762Y-142263881D01*
X101433239Y-142263881D01*
X101528477Y-142311500D01*
X101576096Y-142359119D01*
X101623715Y-142454357D01*
X101623715Y-142501976D01*
X101576096Y-142597214D01*
X101528477Y-142644833D01*
X101433239Y-142692452D01*
X101242762Y-142692452D01*
X101147524Y-142740071D01*
X101099905Y-142787690D01*
X101052286Y-142882929D01*
X101052286Y-143073405D01*
X101099905Y-143168643D01*
X101147524Y-143216262D01*
X101242762Y-143263881D01*
X101433239Y-143263881D01*
X101528477Y-143216262D01*
X101576096Y-143168643D01*
X101623715Y-143073405D01*
X101623715Y-142882929D01*
X101576096Y-142787690D01*
X101528477Y-142740071D01*
X101433239Y-142692452D01*
X102242762Y-142263881D02*
X102338001Y-142263881D01*
X102433239Y-142311500D01*
X102480858Y-142359119D01*
X102528477Y-142454357D01*
X102576096Y-142644833D01*
X102576096Y-142882929D01*
X102528477Y-143073405D01*
X102480858Y-143168643D01*
X102433239Y-143216262D01*
X102338001Y-143263881D01*
X102242762Y-143263881D01*
X102147524Y-143216262D01*
X102099905Y-143168643D01*
X102052286Y-143073405D01*
X102004667Y-142882929D01*
X102004667Y-142644833D01*
X102052286Y-142454357D01*
X102099905Y-142359119D01*
X102147524Y-142311500D01*
X102242762Y-142263881D01*
X103480858Y-142263881D02*
X103004667Y-142263881D01*
X102957048Y-142740071D01*
X103004667Y-142692452D01*
X103099905Y-142644833D01*
X103338001Y-142644833D01*
X103433239Y-142692452D01*
X103480858Y-142740071D01*
X103528477Y-142835310D01*
X103528477Y-143073405D01*
X103480858Y-143168643D01*
X103433239Y-143216262D01*
X103338001Y-143263881D01*
X103099905Y-143263881D01*
X103004667Y-143216262D01*
X102957048Y-143168643D01*
X94940381Y-139096620D02*
X93940381Y-138971620D01*
X94654667Y-138727571D01*
X93940381Y-138304953D01*
X94940381Y-138429953D01*
X94940381Y-137810906D02*
X94892762Y-137900191D01*
X94845143Y-137941858D01*
X94749905Y-137977572D01*
X94464190Y-137941858D01*
X94368952Y-137882334D01*
X94321333Y-137828763D01*
X94273714Y-137727572D01*
X94273714Y-137584714D01*
X94321333Y-137495429D01*
X94368952Y-137453762D01*
X94464190Y-137418048D01*
X94749905Y-137453762D01*
X94845143Y-137513286D01*
X94892762Y-137566857D01*
X94940381Y-137668048D01*
X94940381Y-137810906D01*
X94273714Y-136537095D02*
X94940381Y-136620429D01*
X94273714Y-136965667D02*
X94797524Y-137031143D01*
X94892762Y-136995429D01*
X94940381Y-136906144D01*
X94940381Y-136763286D01*
X94892762Y-136662095D01*
X94845143Y-136608524D01*
X94273714Y-136060905D02*
X94940381Y-136144239D01*
X94368952Y-136072810D02*
X94321333Y-136019239D01*
X94273714Y-135918048D01*
X94273714Y-135775190D01*
X94321333Y-135685905D01*
X94416571Y-135650190D01*
X94940381Y-135715667D01*
X94273714Y-135299000D02*
X94273714Y-134918048D01*
X93940381Y-135114477D02*
X94797524Y-135221619D01*
X94892762Y-135185905D01*
X94940381Y-135096620D01*
X94940381Y-135001382D01*
X94416571Y-133507332D02*
X94464190Y-133370428D01*
X94511810Y-133328761D01*
X94607048Y-133293047D01*
X94749905Y-133310904D01*
X94845143Y-133370428D01*
X94892762Y-133423999D01*
X94940381Y-133525190D01*
X94940381Y-133906143D01*
X93940381Y-133781143D01*
X93940381Y-133447809D01*
X93988000Y-133358523D01*
X94035619Y-133316856D01*
X94130857Y-133281142D01*
X94226095Y-133293047D01*
X94321333Y-133352571D01*
X94368952Y-133406142D01*
X94416571Y-133507332D01*
X94416571Y-133840666D01*
X94940381Y-132477571D02*
X94416571Y-132412094D01*
X94321333Y-132447809D01*
X94273714Y-132537094D01*
X94273714Y-132727571D01*
X94321333Y-132828762D01*
X94892762Y-132471618D02*
X94940381Y-132572809D01*
X94940381Y-132810905D01*
X94892762Y-132900190D01*
X94797524Y-132935904D01*
X94702286Y-132924000D01*
X94607048Y-132864476D01*
X94559429Y-132763286D01*
X94559429Y-132525190D01*
X94511810Y-132423999D01*
X94892762Y-131566856D02*
X94940381Y-131668047D01*
X94940381Y-131858524D01*
X94892762Y-131947809D01*
X94845143Y-131989476D01*
X94749905Y-132025190D01*
X94464190Y-131989476D01*
X94368952Y-131929952D01*
X94321333Y-131876381D01*
X94273714Y-131775190D01*
X94273714Y-131584713D01*
X94321333Y-131495428D01*
X94940381Y-131144238D02*
X93940381Y-131019238D01*
X94559429Y-131001381D02*
X94940381Y-130763285D01*
X94273714Y-130679951D02*
X94654667Y-131108523D01*
X94892762Y-130376380D02*
X94940381Y-130287095D01*
X94940381Y-130096619D01*
X94892762Y-129995427D01*
X94797524Y-129935903D01*
X94749905Y-129929951D01*
X94654667Y-129965665D01*
X94607048Y-130054952D01*
X94607048Y-130197809D01*
X94559429Y-130287095D01*
X94464190Y-130322809D01*
X94416571Y-130316856D01*
X94321333Y-130257333D01*
X94273714Y-130156142D01*
X94273714Y-130013285D01*
X94321333Y-129923999D01*
X94940381Y-129525190D02*
X94273714Y-129441856D01*
X93940381Y-129400190D02*
X93988000Y-129453761D01*
X94035619Y-129412094D01*
X93988000Y-129358523D01*
X93940381Y-129400190D01*
X94035619Y-129412094D01*
X94940381Y-128620428D02*
X93940381Y-128495428D01*
X94892762Y-128614475D02*
X94940381Y-128715666D01*
X94940381Y-128906143D01*
X94892762Y-128995428D01*
X94845143Y-129037095D01*
X94749905Y-129072809D01*
X94464190Y-129037095D01*
X94368952Y-128977571D01*
X94321333Y-128924000D01*
X94273714Y-128822809D01*
X94273714Y-128632332D01*
X94321333Y-128543047D01*
X94892762Y-127757332D02*
X94940381Y-127858523D01*
X94940381Y-128049000D01*
X94892762Y-128138285D01*
X94797524Y-128173999D01*
X94416571Y-128126380D01*
X94321333Y-128066857D01*
X94273714Y-127965666D01*
X94273714Y-127775189D01*
X94321333Y-127685904D01*
X94416571Y-127650189D01*
X94511810Y-127662094D01*
X94607048Y-128150190D01*
X94273714Y-126013284D02*
X94940381Y-126096618D01*
X94273714Y-126441856D02*
X94797524Y-126507332D01*
X94892762Y-126471618D01*
X94940381Y-126382333D01*
X94940381Y-126239475D01*
X94892762Y-126138284D01*
X94845143Y-126084713D01*
X94273714Y-125537094D02*
X95273714Y-125662094D01*
X94321333Y-125543047D02*
X94273714Y-125441856D01*
X94273714Y-125251379D01*
X94321333Y-125162094D01*
X94368952Y-125120427D01*
X94464190Y-125084713D01*
X94749905Y-125120427D01*
X94845143Y-125179951D01*
X94892762Y-125233522D01*
X94940381Y-125334713D01*
X94940381Y-125525190D01*
X94892762Y-125614475D01*
X94273714Y-124727570D02*
X94940381Y-124620428D01*
X94464190Y-124370427D01*
X94940381Y-124239475D01*
X94273714Y-123965665D01*
X94940381Y-123239475D02*
X94416571Y-123173998D01*
X94321333Y-123209713D01*
X94273714Y-123298998D01*
X94273714Y-123489475D01*
X94321333Y-123590666D01*
X94892762Y-123233522D02*
X94940381Y-123334713D01*
X94940381Y-123572809D01*
X94892762Y-123662094D01*
X94797524Y-123697808D01*
X94702286Y-123685904D01*
X94607048Y-123626380D01*
X94559429Y-123525190D01*
X94559429Y-123287094D01*
X94511810Y-123185903D01*
X94940381Y-122763285D02*
X94273714Y-122679951D01*
X94464190Y-122703761D02*
X94368952Y-122644237D01*
X94321333Y-122590666D01*
X94273714Y-122489475D01*
X94273714Y-122394236D01*
X94940381Y-121715665D02*
X93940381Y-121590665D01*
X94892762Y-121709712D02*
X94940381Y-121810903D01*
X94940381Y-122001380D01*
X94892762Y-122090665D01*
X94845143Y-122132332D01*
X94749905Y-122168046D01*
X94464190Y-122132332D01*
X94368952Y-122072808D01*
X94321333Y-122019237D01*
X94273714Y-121918046D01*
X94273714Y-121727569D01*
X94321333Y-121638284D01*
X94845143Y-121227570D02*
X94892762Y-121185903D01*
X94940381Y-121239475D01*
X94892762Y-121281141D01*
X94845143Y-121227570D01*
X94940381Y-121239475D01*
X94559429Y-121191856D02*
X93988000Y-121168046D01*
X93940381Y-121114475D01*
X93988000Y-121072808D01*
X94559429Y-121191856D01*
X93940381Y-121114475D01*
X158440381Y-110529595D02*
X157440381Y-110529595D01*
X157440381Y-110148642D01*
X157488000Y-110053404D01*
X157535619Y-110005785D01*
X157630857Y-109958166D01*
X157773714Y-109958166D01*
X157868952Y-110005785D01*
X157916571Y-110053404D01*
X157964190Y-110148642D01*
X157964190Y-110529595D01*
X157535619Y-109577214D02*
X157488000Y-109529595D01*
X157440381Y-109434357D01*
X157440381Y-109196261D01*
X157488000Y-109101023D01*
X157535619Y-109053404D01*
X157630857Y-109005785D01*
X157726095Y-109005785D01*
X157868952Y-109053404D01*
X158440381Y-109624833D01*
X158440381Y-109005785D01*
X105354381Y-79338395D02*
X104354381Y-79338395D01*
X104354381Y-78957442D01*
X104402000Y-78862204D01*
X104449619Y-78814585D01*
X104544857Y-78766966D01*
X104687714Y-78766966D01*
X104782952Y-78814585D01*
X104830571Y-78862204D01*
X104878190Y-78957442D01*
X104878190Y-79338395D01*
X104354381Y-78433633D02*
X104354381Y-77814585D01*
X104735333Y-78147919D01*
X104735333Y-78005061D01*
X104782952Y-77909823D01*
X104830571Y-77862204D01*
X104925810Y-77814585D01*
X105163905Y-77814585D01*
X105259143Y-77862204D01*
X105306762Y-77909823D01*
X105354381Y-78005061D01*
X105354381Y-78290776D01*
X105306762Y-78386014D01*
X105259143Y-78433633D01*
X94623000Y-81009833D02*
X94575381Y-81105071D01*
X94575381Y-81247928D01*
X94623000Y-81390786D01*
X94718238Y-81486024D01*
X94813476Y-81533643D01*
X95003952Y-81581262D01*
X95146810Y-81581262D01*
X95337286Y-81533643D01*
X95432524Y-81486024D01*
X95527762Y-81390786D01*
X95575381Y-81247928D01*
X95575381Y-81152690D01*
X95527762Y-81009833D01*
X95480143Y-80962214D01*
X95146810Y-80962214D01*
X95146810Y-81152690D01*
X95575381Y-80533643D02*
X94575381Y-80533643D01*
X95575381Y-79962214D01*
X94575381Y-79962214D01*
X95575381Y-79486024D02*
X94575381Y-79486024D01*
X94575381Y-79247929D01*
X94623000Y-79105071D01*
X94718238Y-79009833D01*
X94813476Y-78962214D01*
X95003952Y-78914595D01*
X95146810Y-78914595D01*
X95337286Y-78962214D01*
X95432524Y-79009833D01*
X95527762Y-79105071D01*
X95575381Y-79247929D01*
X95575381Y-79486024D01*
X94575381Y-77866976D02*
X95575381Y-77533643D01*
X94575381Y-77200309D01*
X95575381Y-76866976D02*
X94575381Y-76866976D01*
X95575381Y-76390786D02*
X94575381Y-76390786D01*
X95575381Y-75819357D01*
X94575381Y-75819357D01*
X156479501Y-81319595D02*
X155479501Y-81319595D01*
X155479501Y-80938642D01*
X155527120Y-80843404D01*
X155574739Y-80795785D01*
X155669977Y-80748166D01*
X155812834Y-80748166D01*
X155908072Y-80795785D01*
X155955691Y-80843404D01*
X156003310Y-80938642D01*
X156003310Y-81319595D01*
X156479501Y-79795785D02*
X156479501Y-80367214D01*
X156479501Y-80081500D02*
X155479501Y-80081500D01*
X155622358Y-80176738D01*
X155717596Y-80271976D01*
X155765215Y-80367214D01*
X166060381Y-81986262D02*
X165584190Y-82319596D01*
X166060381Y-82557691D02*
X165060381Y-82557691D01*
X165060381Y-82176738D01*
X165108000Y-82081500D01*
X165155619Y-82033881D01*
X165250857Y-81986262D01*
X165393714Y-81986262D01*
X165488952Y-82033881D01*
X165536571Y-82081500D01*
X165584190Y-82176738D01*
X165584190Y-82557691D01*
X165060381Y-81652929D02*
X166060381Y-80986262D01*
X165060381Y-80986262D02*
X166060381Y-81652929D01*
X165060381Y-79986262D02*
X165060381Y-79414833D01*
X166060381Y-79700548D02*
X165060381Y-79700548D01*
X165060381Y-79176738D02*
X166060381Y-78510071D01*
X165060381Y-78510071D02*
X166060381Y-79176738D01*
X156479501Y-74969595D02*
X155479501Y-74969595D01*
X155479501Y-74588642D01*
X155527120Y-74493404D01*
X155574739Y-74445785D01*
X155669977Y-74398166D01*
X155812834Y-74398166D01*
X155908072Y-74445785D01*
X155955691Y-74493404D01*
X156003310Y-74588642D01*
X156003310Y-74969595D01*
X155812834Y-73541023D02*
X156479501Y-73541023D01*
X155431882Y-73779119D02*
X156146168Y-74017214D01*
X156146168Y-73398166D01*
X165679429Y-77421976D02*
X165679429Y-76660071D01*
X166060381Y-77041023D02*
X165298476Y-77041023D01*
X165060381Y-75707690D02*
X165060381Y-76183881D01*
X165536571Y-76231500D01*
X165488952Y-76183881D01*
X165441333Y-76088643D01*
X165441333Y-75850547D01*
X165488952Y-75755309D01*
X165536571Y-75707690D01*
X165631810Y-75660071D01*
X165869905Y-75660071D01*
X165965143Y-75707690D01*
X166012762Y-75755309D01*
X166060381Y-75850547D01*
X166060381Y-76088643D01*
X166012762Y-76183881D01*
X165965143Y-76231500D01*
X165060381Y-75374357D02*
X166060381Y-75041024D01*
X165060381Y-74707690D01*
X165108000Y-73088642D02*
X165060381Y-73183880D01*
X165060381Y-73326737D01*
X165108000Y-73469595D01*
X165203238Y-73564833D01*
X165298476Y-73612452D01*
X165488952Y-73660071D01*
X165631810Y-73660071D01*
X165822286Y-73612452D01*
X165917524Y-73564833D01*
X166012762Y-73469595D01*
X166060381Y-73326737D01*
X166060381Y-73231499D01*
X166012762Y-73088642D01*
X165965143Y-73041023D01*
X165631810Y-73041023D01*
X165631810Y-73231499D01*
X166060381Y-72612452D02*
X165060381Y-72612452D01*
X166060381Y-72041023D01*
X165060381Y-72041023D01*
X166060381Y-71564833D02*
X165060381Y-71564833D01*
X165060381Y-71326738D01*
X165108000Y-71183880D01*
X165203238Y-71088642D01*
X165298476Y-71041023D01*
X165488952Y-70993404D01*
X165631810Y-70993404D01*
X165822286Y-71041023D01*
X165917524Y-71088642D01*
X166012762Y-71183880D01*
X166060381Y-71326738D01*
X166060381Y-71564833D01*
M02*
