G04 #@! TF.FileFunction,Legend,Bot*
%FSLAX46Y46*%
G04 Gerber Fmt 4.6, Leading zero omitted, Abs format (unit mm)*
G04 Created by KiCad (PCBNEW 4.0.2-stable) date Tue 02 Aug 2016 06:34:44 PM EDT*
%MOMM*%
G01*
G04 APERTURE LIST*
%ADD10C,0.100000*%
%ADD11C,0.150000*%
G04 APERTURE END LIST*
D10*
D11*
X111125000Y-133350000D02*
X111125000Y-128270000D01*
X111125000Y-128270000D02*
X108585000Y-128270000D01*
X108585000Y-128270000D02*
X108585000Y-133350000D01*
X108585000Y-133350000D02*
X111125000Y-133350000D01*
X109855000Y-133350000D02*
X109855000Y-134620000D01*
X109855000Y-128270000D02*
X109855000Y-127000000D01*
X115180000Y-129675000D02*
X116450000Y-129675000D01*
X115180000Y-137025000D02*
X116450000Y-137025000D01*
X137550000Y-137025000D02*
X136280000Y-137025000D01*
X137550000Y-129675000D02*
X136280000Y-129675000D01*
X115180000Y-129675000D02*
X115180000Y-137025000D01*
X137550000Y-129675000D02*
X137550000Y-137025000D01*
X116450000Y-129675000D02*
X116450000Y-128390000D01*
X110100000Y-111895000D02*
X111370000Y-111895000D01*
X110100000Y-119245000D02*
X111370000Y-119245000D01*
X132470000Y-119245000D02*
X131200000Y-119245000D01*
X132470000Y-111895000D02*
X131200000Y-111895000D01*
X110100000Y-111895000D02*
X110100000Y-119245000D01*
X132470000Y-111895000D02*
X132470000Y-119245000D01*
X111370000Y-111895000D02*
X111370000Y-110610000D01*
X98670000Y-94115000D02*
X99940000Y-94115000D01*
X98670000Y-101465000D02*
X99940000Y-101465000D01*
X121040000Y-101465000D02*
X119770000Y-101465000D01*
X121040000Y-94115000D02*
X119770000Y-94115000D01*
X98670000Y-94115000D02*
X98670000Y-101465000D01*
X121040000Y-94115000D02*
X121040000Y-101465000D01*
X99940000Y-94115000D02*
X99940000Y-92830000D01*
X121530000Y-94115000D02*
X122800000Y-94115000D01*
X121530000Y-101465000D02*
X122800000Y-101465000D01*
X143900000Y-101465000D02*
X142630000Y-101465000D01*
X143900000Y-94115000D02*
X142630000Y-94115000D01*
X121530000Y-94115000D02*
X121530000Y-101465000D01*
X143900000Y-94115000D02*
X143900000Y-101465000D01*
X122800000Y-94115000D02*
X122800000Y-92830000D01*
X120260000Y-76335000D02*
X121530000Y-76335000D01*
X120260000Y-83685000D02*
X121530000Y-83685000D01*
X142630000Y-83685000D02*
X141360000Y-83685000D01*
X142630000Y-76335000D02*
X141360000Y-76335000D01*
X120260000Y-76335000D02*
X120260000Y-83685000D01*
X142630000Y-76335000D02*
X142630000Y-83685000D01*
X121530000Y-76335000D02*
X121530000Y-75050000D01*
X108275381Y-130579834D02*
X107799190Y-130246500D01*
X108275381Y-130008405D02*
X107275381Y-130008405D01*
X107275381Y-130389358D01*
X107323000Y-130484596D01*
X107370619Y-130532215D01*
X107465857Y-130579834D01*
X107608714Y-130579834D01*
X107703952Y-130532215D01*
X107751571Y-130484596D01*
X107799190Y-130389358D01*
X107799190Y-130008405D01*
X108275381Y-131532215D02*
X108275381Y-130960786D01*
X108275381Y-131246500D02*
X107275381Y-131246500D01*
X107418238Y-131151262D01*
X107513476Y-131056024D01*
X107561095Y-130960786D01*
X106497381Y-130119524D02*
X106497381Y-129548095D01*
X106497381Y-129833809D02*
X105497381Y-129833809D01*
X105640238Y-129738571D01*
X105735476Y-129643333D01*
X105783095Y-129548095D01*
X105497381Y-130738571D02*
X105497381Y-130833810D01*
X105545000Y-130929048D01*
X105592619Y-130976667D01*
X105687857Y-131024286D01*
X105878333Y-131071905D01*
X106116429Y-131071905D01*
X106306905Y-131024286D01*
X106402143Y-130976667D01*
X106449762Y-130929048D01*
X106497381Y-130833810D01*
X106497381Y-130738571D01*
X106449762Y-130643333D01*
X106402143Y-130595714D01*
X106306905Y-130548095D01*
X106116429Y-130500476D01*
X105878333Y-130500476D01*
X105687857Y-130548095D01*
X105592619Y-130595714D01*
X105545000Y-130643333D01*
X105497381Y-130738571D01*
X106497381Y-131500476D02*
X105497381Y-131500476D01*
X106497381Y-132071905D02*
X105925952Y-131643333D01*
X105497381Y-132071905D02*
X106068810Y-131500476D01*
X111707381Y-128778095D02*
X112516905Y-128778095D01*
X112612143Y-128825714D01*
X112659762Y-128873333D01*
X112707381Y-128968571D01*
X112707381Y-129159048D01*
X112659762Y-129254286D01*
X112612143Y-129301905D01*
X112516905Y-129349524D01*
X111707381Y-129349524D01*
X112707381Y-130349524D02*
X112707381Y-129778095D01*
X112707381Y-130063809D02*
X111707381Y-130063809D01*
X111850238Y-129968571D01*
X111945476Y-129873333D01*
X111993095Y-129778095D01*
X113207381Y-126278095D02*
X113207381Y-126944762D01*
X114207381Y-126516190D01*
X113540714Y-127754286D02*
X114207381Y-127754286D01*
X113159762Y-127516190D02*
X113874048Y-127278095D01*
X113874048Y-127897143D01*
X114207381Y-128278095D02*
X113207381Y-128278095D01*
X113683571Y-128278095D02*
X113683571Y-128849524D01*
X114207381Y-128849524D02*
X113207381Y-128849524D01*
X114112143Y-129897143D02*
X114159762Y-129849524D01*
X114207381Y-129706667D01*
X114207381Y-129611429D01*
X114159762Y-129468571D01*
X114064524Y-129373333D01*
X113969286Y-129325714D01*
X113778810Y-129278095D01*
X113635952Y-129278095D01*
X113445476Y-129325714D01*
X113350238Y-129373333D01*
X113255000Y-129468571D01*
X113207381Y-129611429D01*
X113207381Y-129706667D01*
X113255000Y-129849524D01*
X113302619Y-129897143D01*
X113207381Y-130801905D02*
X113207381Y-130325714D01*
X113683571Y-130278095D01*
X113635952Y-130325714D01*
X113588333Y-130420952D01*
X113588333Y-130659048D01*
X113635952Y-130754286D01*
X113683571Y-130801905D01*
X113778810Y-130849524D01*
X114016905Y-130849524D01*
X114112143Y-130801905D01*
X114159762Y-130754286D01*
X114207381Y-130659048D01*
X114207381Y-130420952D01*
X114159762Y-130325714D01*
X114112143Y-130278095D01*
X114207381Y-131325714D02*
X114207381Y-131516190D01*
X114159762Y-131611429D01*
X114112143Y-131659048D01*
X113969286Y-131754286D01*
X113778810Y-131801905D01*
X113397857Y-131801905D01*
X113302619Y-131754286D01*
X113255000Y-131706667D01*
X113207381Y-131611429D01*
X113207381Y-131420952D01*
X113255000Y-131325714D01*
X113302619Y-131278095D01*
X113397857Y-131230476D01*
X113635952Y-131230476D01*
X113731190Y-131278095D01*
X113778810Y-131325714D01*
X113826429Y-131420952D01*
X113826429Y-131611429D01*
X113778810Y-131706667D01*
X113731190Y-131754286D01*
X113635952Y-131801905D01*
X113207381Y-132706667D02*
X113207381Y-132230476D01*
X113683571Y-132182857D01*
X113635952Y-132230476D01*
X113588333Y-132325714D01*
X113588333Y-132563810D01*
X113635952Y-132659048D01*
X113683571Y-132706667D01*
X113778810Y-132754286D01*
X114016905Y-132754286D01*
X114112143Y-132706667D01*
X114159762Y-132659048D01*
X114207381Y-132563810D01*
X114207381Y-132325714D01*
X114159762Y-132230476D01*
X114112143Y-132182857D01*
X106627381Y-110998095D02*
X107436905Y-110998095D01*
X107532143Y-111045714D01*
X107579762Y-111093333D01*
X107627381Y-111188571D01*
X107627381Y-111379048D01*
X107579762Y-111474286D01*
X107532143Y-111521905D01*
X107436905Y-111569524D01*
X106627381Y-111569524D01*
X106722619Y-111998095D02*
X106675000Y-112045714D01*
X106627381Y-112140952D01*
X106627381Y-112379048D01*
X106675000Y-112474286D01*
X106722619Y-112521905D01*
X106817857Y-112569524D01*
X106913095Y-112569524D01*
X107055952Y-112521905D01*
X107627381Y-111950476D01*
X107627381Y-112569524D01*
X108127381Y-108498095D02*
X108127381Y-109164762D01*
X109127381Y-108736190D01*
X108460714Y-109974286D02*
X109127381Y-109974286D01*
X108079762Y-109736190D02*
X108794048Y-109498095D01*
X108794048Y-110117143D01*
X109127381Y-110498095D02*
X108127381Y-110498095D01*
X108603571Y-110498095D02*
X108603571Y-111069524D01*
X109127381Y-111069524D02*
X108127381Y-111069524D01*
X109032143Y-112117143D02*
X109079762Y-112069524D01*
X109127381Y-111926667D01*
X109127381Y-111831429D01*
X109079762Y-111688571D01*
X108984524Y-111593333D01*
X108889286Y-111545714D01*
X108698810Y-111498095D01*
X108555952Y-111498095D01*
X108365476Y-111545714D01*
X108270238Y-111593333D01*
X108175000Y-111688571D01*
X108127381Y-111831429D01*
X108127381Y-111926667D01*
X108175000Y-112069524D01*
X108222619Y-112117143D01*
X108127381Y-113021905D02*
X108127381Y-112545714D01*
X108603571Y-112498095D01*
X108555952Y-112545714D01*
X108508333Y-112640952D01*
X108508333Y-112879048D01*
X108555952Y-112974286D01*
X108603571Y-113021905D01*
X108698810Y-113069524D01*
X108936905Y-113069524D01*
X109032143Y-113021905D01*
X109079762Y-112974286D01*
X109127381Y-112879048D01*
X109127381Y-112640952D01*
X109079762Y-112545714D01*
X109032143Y-112498095D01*
X109127381Y-113545714D02*
X109127381Y-113736190D01*
X109079762Y-113831429D01*
X109032143Y-113879048D01*
X108889286Y-113974286D01*
X108698810Y-114021905D01*
X108317857Y-114021905D01*
X108222619Y-113974286D01*
X108175000Y-113926667D01*
X108127381Y-113831429D01*
X108127381Y-113640952D01*
X108175000Y-113545714D01*
X108222619Y-113498095D01*
X108317857Y-113450476D01*
X108555952Y-113450476D01*
X108651190Y-113498095D01*
X108698810Y-113545714D01*
X108746429Y-113640952D01*
X108746429Y-113831429D01*
X108698810Y-113926667D01*
X108651190Y-113974286D01*
X108555952Y-114021905D01*
X108127381Y-114926667D02*
X108127381Y-114450476D01*
X108603571Y-114402857D01*
X108555952Y-114450476D01*
X108508333Y-114545714D01*
X108508333Y-114783810D01*
X108555952Y-114879048D01*
X108603571Y-114926667D01*
X108698810Y-114974286D01*
X108936905Y-114974286D01*
X109032143Y-114926667D01*
X109079762Y-114879048D01*
X109127381Y-114783810D01*
X109127381Y-114545714D01*
X109079762Y-114450476D01*
X109032143Y-114402857D01*
X95197381Y-93218095D02*
X96006905Y-93218095D01*
X96102143Y-93265714D01*
X96149762Y-93313333D01*
X96197381Y-93408571D01*
X96197381Y-93599048D01*
X96149762Y-93694286D01*
X96102143Y-93741905D01*
X96006905Y-93789524D01*
X95197381Y-93789524D01*
X95197381Y-94170476D02*
X95197381Y-94789524D01*
X95578333Y-94456190D01*
X95578333Y-94599048D01*
X95625952Y-94694286D01*
X95673571Y-94741905D01*
X95768810Y-94789524D01*
X96006905Y-94789524D01*
X96102143Y-94741905D01*
X96149762Y-94694286D01*
X96197381Y-94599048D01*
X96197381Y-94313333D01*
X96149762Y-94218095D01*
X96102143Y-94170476D01*
X96697381Y-90718095D02*
X96697381Y-91384762D01*
X97697381Y-90956190D01*
X97030714Y-92194286D02*
X97697381Y-92194286D01*
X96649762Y-91956190D02*
X97364048Y-91718095D01*
X97364048Y-92337143D01*
X97697381Y-92718095D02*
X96697381Y-92718095D01*
X97173571Y-92718095D02*
X97173571Y-93289524D01*
X97697381Y-93289524D02*
X96697381Y-93289524D01*
X97602143Y-94337143D02*
X97649762Y-94289524D01*
X97697381Y-94146667D01*
X97697381Y-94051429D01*
X97649762Y-93908571D01*
X97554524Y-93813333D01*
X97459286Y-93765714D01*
X97268810Y-93718095D01*
X97125952Y-93718095D01*
X96935476Y-93765714D01*
X96840238Y-93813333D01*
X96745000Y-93908571D01*
X96697381Y-94051429D01*
X96697381Y-94146667D01*
X96745000Y-94289524D01*
X96792619Y-94337143D01*
X96697381Y-95241905D02*
X96697381Y-94765714D01*
X97173571Y-94718095D01*
X97125952Y-94765714D01*
X97078333Y-94860952D01*
X97078333Y-95099048D01*
X97125952Y-95194286D01*
X97173571Y-95241905D01*
X97268810Y-95289524D01*
X97506905Y-95289524D01*
X97602143Y-95241905D01*
X97649762Y-95194286D01*
X97697381Y-95099048D01*
X97697381Y-94860952D01*
X97649762Y-94765714D01*
X97602143Y-94718095D01*
X97697381Y-95765714D02*
X97697381Y-95956190D01*
X97649762Y-96051429D01*
X97602143Y-96099048D01*
X97459286Y-96194286D01*
X97268810Y-96241905D01*
X96887857Y-96241905D01*
X96792619Y-96194286D01*
X96745000Y-96146667D01*
X96697381Y-96051429D01*
X96697381Y-95860952D01*
X96745000Y-95765714D01*
X96792619Y-95718095D01*
X96887857Y-95670476D01*
X97125952Y-95670476D01*
X97221190Y-95718095D01*
X97268810Y-95765714D01*
X97316429Y-95860952D01*
X97316429Y-96051429D01*
X97268810Y-96146667D01*
X97221190Y-96194286D01*
X97125952Y-96241905D01*
X96697381Y-97146667D02*
X96697381Y-96670476D01*
X97173571Y-96622857D01*
X97125952Y-96670476D01*
X97078333Y-96765714D01*
X97078333Y-97003810D01*
X97125952Y-97099048D01*
X97173571Y-97146667D01*
X97268810Y-97194286D01*
X97506905Y-97194286D01*
X97602143Y-97146667D01*
X97649762Y-97099048D01*
X97697381Y-97003810D01*
X97697381Y-96765714D01*
X97649762Y-96670476D01*
X97602143Y-96622857D01*
X118057381Y-93218095D02*
X118866905Y-93218095D01*
X118962143Y-93265714D01*
X119009762Y-93313333D01*
X119057381Y-93408571D01*
X119057381Y-93599048D01*
X119009762Y-93694286D01*
X118962143Y-93741905D01*
X118866905Y-93789524D01*
X118057381Y-93789524D01*
X118390714Y-94694286D02*
X119057381Y-94694286D01*
X118009762Y-94456190D02*
X118724048Y-94218095D01*
X118724048Y-94837143D01*
X119557381Y-90718095D02*
X119557381Y-91384762D01*
X120557381Y-90956190D01*
X119890714Y-92194286D02*
X120557381Y-92194286D01*
X119509762Y-91956190D02*
X120224048Y-91718095D01*
X120224048Y-92337143D01*
X120557381Y-92718095D02*
X119557381Y-92718095D01*
X120033571Y-92718095D02*
X120033571Y-93289524D01*
X120557381Y-93289524D02*
X119557381Y-93289524D01*
X120462143Y-94337143D02*
X120509762Y-94289524D01*
X120557381Y-94146667D01*
X120557381Y-94051429D01*
X120509762Y-93908571D01*
X120414524Y-93813333D01*
X120319286Y-93765714D01*
X120128810Y-93718095D01*
X119985952Y-93718095D01*
X119795476Y-93765714D01*
X119700238Y-93813333D01*
X119605000Y-93908571D01*
X119557381Y-94051429D01*
X119557381Y-94146667D01*
X119605000Y-94289524D01*
X119652619Y-94337143D01*
X119557381Y-95241905D02*
X119557381Y-94765714D01*
X120033571Y-94718095D01*
X119985952Y-94765714D01*
X119938333Y-94860952D01*
X119938333Y-95099048D01*
X119985952Y-95194286D01*
X120033571Y-95241905D01*
X120128810Y-95289524D01*
X120366905Y-95289524D01*
X120462143Y-95241905D01*
X120509762Y-95194286D01*
X120557381Y-95099048D01*
X120557381Y-94860952D01*
X120509762Y-94765714D01*
X120462143Y-94718095D01*
X120557381Y-95765714D02*
X120557381Y-95956190D01*
X120509762Y-96051429D01*
X120462143Y-96099048D01*
X120319286Y-96194286D01*
X120128810Y-96241905D01*
X119747857Y-96241905D01*
X119652619Y-96194286D01*
X119605000Y-96146667D01*
X119557381Y-96051429D01*
X119557381Y-95860952D01*
X119605000Y-95765714D01*
X119652619Y-95718095D01*
X119747857Y-95670476D01*
X119985952Y-95670476D01*
X120081190Y-95718095D01*
X120128810Y-95765714D01*
X120176429Y-95860952D01*
X120176429Y-96051429D01*
X120128810Y-96146667D01*
X120081190Y-96194286D01*
X119985952Y-96241905D01*
X119557381Y-97146667D02*
X119557381Y-96670476D01*
X120033571Y-96622857D01*
X119985952Y-96670476D01*
X119938333Y-96765714D01*
X119938333Y-97003810D01*
X119985952Y-97099048D01*
X120033571Y-97146667D01*
X120128810Y-97194286D01*
X120366905Y-97194286D01*
X120462143Y-97146667D01*
X120509762Y-97099048D01*
X120557381Y-97003810D01*
X120557381Y-96765714D01*
X120509762Y-96670476D01*
X120462143Y-96622857D01*
X116787381Y-75438095D02*
X117596905Y-75438095D01*
X117692143Y-75485714D01*
X117739762Y-75533333D01*
X117787381Y-75628571D01*
X117787381Y-75819048D01*
X117739762Y-75914286D01*
X117692143Y-75961905D01*
X117596905Y-76009524D01*
X116787381Y-76009524D01*
X116787381Y-76961905D02*
X116787381Y-76485714D01*
X117263571Y-76438095D01*
X117215952Y-76485714D01*
X117168333Y-76580952D01*
X117168333Y-76819048D01*
X117215952Y-76914286D01*
X117263571Y-76961905D01*
X117358810Y-77009524D01*
X117596905Y-77009524D01*
X117692143Y-76961905D01*
X117739762Y-76914286D01*
X117787381Y-76819048D01*
X117787381Y-76580952D01*
X117739762Y-76485714D01*
X117692143Y-76438095D01*
X118287381Y-72938095D02*
X118287381Y-73604762D01*
X119287381Y-73176190D01*
X118620714Y-74414286D02*
X119287381Y-74414286D01*
X118239762Y-74176190D02*
X118954048Y-73938095D01*
X118954048Y-74557143D01*
X119287381Y-74938095D02*
X118287381Y-74938095D01*
X118763571Y-74938095D02*
X118763571Y-75509524D01*
X119287381Y-75509524D02*
X118287381Y-75509524D01*
X119192143Y-76557143D02*
X119239762Y-76509524D01*
X119287381Y-76366667D01*
X119287381Y-76271429D01*
X119239762Y-76128571D01*
X119144524Y-76033333D01*
X119049286Y-75985714D01*
X118858810Y-75938095D01*
X118715952Y-75938095D01*
X118525476Y-75985714D01*
X118430238Y-76033333D01*
X118335000Y-76128571D01*
X118287381Y-76271429D01*
X118287381Y-76366667D01*
X118335000Y-76509524D01*
X118382619Y-76557143D01*
X118287381Y-77461905D02*
X118287381Y-76985714D01*
X118763571Y-76938095D01*
X118715952Y-76985714D01*
X118668333Y-77080952D01*
X118668333Y-77319048D01*
X118715952Y-77414286D01*
X118763571Y-77461905D01*
X118858810Y-77509524D01*
X119096905Y-77509524D01*
X119192143Y-77461905D01*
X119239762Y-77414286D01*
X119287381Y-77319048D01*
X119287381Y-77080952D01*
X119239762Y-76985714D01*
X119192143Y-76938095D01*
X119287381Y-77985714D02*
X119287381Y-78176190D01*
X119239762Y-78271429D01*
X119192143Y-78319048D01*
X119049286Y-78414286D01*
X118858810Y-78461905D01*
X118477857Y-78461905D01*
X118382619Y-78414286D01*
X118335000Y-78366667D01*
X118287381Y-78271429D01*
X118287381Y-78080952D01*
X118335000Y-77985714D01*
X118382619Y-77938095D01*
X118477857Y-77890476D01*
X118715952Y-77890476D01*
X118811190Y-77938095D01*
X118858810Y-77985714D01*
X118906429Y-78080952D01*
X118906429Y-78271429D01*
X118858810Y-78366667D01*
X118811190Y-78414286D01*
X118715952Y-78461905D01*
X118287381Y-79366667D02*
X118287381Y-78890476D01*
X118763571Y-78842857D01*
X118715952Y-78890476D01*
X118668333Y-78985714D01*
X118668333Y-79223810D01*
X118715952Y-79319048D01*
X118763571Y-79366667D01*
X118858810Y-79414286D01*
X119096905Y-79414286D01*
X119192143Y-79366667D01*
X119239762Y-79319048D01*
X119287381Y-79223810D01*
X119287381Y-78985714D01*
X119239762Y-78890476D01*
X119192143Y-78842857D01*
M02*
